<mxfile host="app.diagrams.net" agent="Mozilla/5.0 (Windows NT 10.0; Win64; x64) AppleWebKit/537.36 (KHTML, like Gecko) Chrome/128.0.0.0 Safari/537.36" version="24.7.12">
  <diagram name="Page-1" id="ff44883e-f642-bcb2-894b-16b3d25a3f0b">
    <mxGraphModel dx="880" dy="1655" grid="1" gridSize="10" guides="1" tooltips="1" connect="1" arrows="1" fold="1" page="1" pageScale="1.5" pageWidth="1169" pageHeight="826" background="none" math="0" shadow="0">
      <root>
        <mxCell id="0" style=";html=1;" />
        <mxCell id="1" style=";html=1;" parent="0" />
        <mxCell id="iIViWj5kwo_5ftV5tEHs-10" style="edgeStyle=none;curved=1;rounded=0;orthogonalLoop=1;jettySize=auto;html=1;exitX=1;exitY=0.5;exitDx=0;exitDy=0;fontSize=12;startSize=8;endSize=8;entryX=0;entryY=0.5;entryDx=0;entryDy=0;" parent="1" source="f0bcc99304e6f5a-2" target="iIViWj5kwo_5ftV5tEHs-11" edge="1">
          <mxGeometry relative="1" as="geometry">
            <mxPoint x="517" y="580.4117647058823" as="targetPoint" />
          </mxGeometry>
        </mxCell>
        <mxCell id="iIViWj5kwo_5ftV5tEHs-38" value="&lt;font style=&quot;font-size: 20px;&quot;&gt;c&lt;/font&gt;" style="edgeLabel;html=1;align=center;verticalAlign=middle;resizable=0;points=[];fontSize=12;" parent="iIViWj5kwo_5ftV5tEHs-10" vertex="1" connectable="0">
          <mxGeometry x="-0.4769" y="3" relative="1" as="geometry">
            <mxPoint x="19" y="-17" as="offset" />
          </mxGeometry>
        </mxCell>
        <mxCell id="f0bcc99304e6f5a-2" value="q1" style="ellipse;whiteSpace=wrap;html=1;rounded=0;shadow=1;strokeColor=#666666;strokeWidth=1;fontSize=30;align=center;fillColor=#f5f5f5;" parent="1" vertex="1">
          <mxGeometry x="200" y="540" width="80" height="80" as="geometry" />
        </mxCell>
        <mxCell id="iIViWj5kwo_5ftV5tEHs-1" value="" style="edgeStyle=none;orthogonalLoop=1;jettySize=auto;html=1;rounded=0;fontSize=12;startSize=8;endSize=8;curved=1;entryX=0;entryY=0.5;entryDx=0;entryDy=0;" parent="1" target="iIViWj5kwo_5ftV5tEHs-2" edge="1">
          <mxGeometry width="140" relative="1" as="geometry">
            <mxPoint y="580" as="sourcePoint" />
            <mxPoint x="40" y="580" as="targetPoint" />
            <Array as="points" />
          </mxGeometry>
        </mxCell>
        <mxCell id="iIViWj5kwo_5ftV5tEHs-6" style="edgeStyle=none;curved=0;rounded=0;orthogonalLoop=1;jettySize=auto;html=1;entryX=0;entryY=0.5;entryDx=0;entryDy=0;fontSize=12;startSize=8;endSize=8;" parent="1" source="iIViWj5kwo_5ftV5tEHs-2" target="f0bcc99304e6f5a-2" edge="1">
          <mxGeometry relative="1" as="geometry">
            <Array as="points" />
          </mxGeometry>
        </mxCell>
        <mxCell id="iIViWj5kwo_5ftV5tEHs-8" value="&lt;span style=&quot;color: rgb(85, 85, 85); font-family: Arial, Helvetica, sans-serif; font-size: 15px; text-align: justify; text-wrap: wrap;&quot;&gt;ε&lt;/span&gt;" style="edgeLabel;html=1;align=center;verticalAlign=middle;resizable=0;points=[];fontSize=12;" parent="iIViWj5kwo_5ftV5tEHs-6" vertex="1" connectable="0">
          <mxGeometry x="0.7841" y="2" relative="1" as="geometry">
            <mxPoint x="-33" y="-17" as="offset" />
          </mxGeometry>
        </mxCell>
        <mxCell id="iIViWj5kwo_5ftV5tEHs-2" value="q0" style="ellipse;whiteSpace=wrap;html=1;rounded=0;shadow=1;strokeColor=#666666;strokeWidth=1;fontSize=30;align=center;fillColor=#f5f5f5;" parent="1" vertex="1">
          <mxGeometry x="60" y="540" width="80" height="80" as="geometry" />
        </mxCell>
        <mxCell id="iIViWj5kwo_5ftV5tEHs-11" value="q2" style="ellipse;whiteSpace=wrap;html=1;rounded=0;shadow=1;strokeColor=#666666;strokeWidth=1;fontSize=30;align=center;fillColor=#f5f5f5;" parent="1" vertex="1">
          <mxGeometry x="360" y="540" width="80" height="80" as="geometry" />
        </mxCell>
        <mxCell id="iIViWj5kwo_5ftV5tEHs-47" style="edgeStyle=none;curved=0;rounded=0;orthogonalLoop=1;jettySize=auto;html=1;exitX=1;exitY=0.5;exitDx=0;exitDy=0;fontSize=12;startSize=8;endSize=8;" parent="1" source="iIViWj5kwo_5ftV5tEHs-49" target="iIViWj5kwo_5ftV5tEHs-52" edge="1">
          <mxGeometry relative="1" as="geometry">
            <Array as="points">
              <mxPoint x="3479.8599999999997" y="1269.47" />
              <mxPoint x="3479.8599999999997" y="1429.47" />
            </Array>
          </mxGeometry>
        </mxCell>
        <mxCell id="iIViWj5kwo_5ftV5tEHs-49" value="q5" style="ellipse;whiteSpace=wrap;html=1;rounded=0;shadow=1;strokeColor=#666666;strokeWidth=1;fontSize=30;align=center;fillColor=#f5f5f5;" parent="1" vertex="1">
          <mxGeometry x="3309.8599999999997" y="1229.47" width="80" height="80" as="geometry" />
        </mxCell>
        <mxCell id="iIViWj5kwo_5ftV5tEHs-50" value="" style="edgeStyle=none;curved=1;rounded=0;orthogonalLoop=1;jettySize=auto;html=1;fontSize=12;startSize=8;endSize=8;" parent="1" source="iIViWj5kwo_5ftV5tEHs-52" target="iIViWj5kwo_5ftV5tEHs-59" edge="1">
          <mxGeometry relative="1" as="geometry" />
        </mxCell>
        <mxCell id="iIViWj5kwo_5ftV5tEHs-52" value="q8" style="ellipse;whiteSpace=wrap;html=1;rounded=0;shadow=1;strokeColor=#666666;strokeWidth=1;fontSize=30;align=center;fillColor=#f5f5f5;" parent="1" vertex="1">
          <mxGeometry x="3549.8599999999997" y="1389.47" width="80" height="80" as="geometry" />
        </mxCell>
        <mxCell id="iIViWj5kwo_5ftV5tEHs-53" style="edgeStyle=none;curved=1;rounded=0;orthogonalLoop=1;jettySize=auto;html=1;entryX=0;entryY=0.5;entryDx=0;entryDy=0;fontSize=12;startSize=8;endSize=8;" parent="1" source="iIViWj5kwo_5ftV5tEHs-55" target="YRFl2U0ToXUnBVI3a0Rl-48" edge="1">
          <mxGeometry relative="1" as="geometry">
            <mxPoint x="3833.8599999999687" y="1040" as="targetPoint" />
          </mxGeometry>
        </mxCell>
        <mxCell id="iIViWj5kwo_5ftV5tEHs-54" value="&lt;span style=&quot;font-size: 20px;&quot;&gt;y&lt;/span&gt;" style="edgeLabel;html=1;align=center;verticalAlign=middle;resizable=0;points=[];fontSize=12;" parent="iIViWj5kwo_5ftV5tEHs-53" vertex="1" connectable="0">
          <mxGeometry x="-0.0833" y="3" relative="1" as="geometry">
            <mxPoint y="-17" as="offset" />
          </mxGeometry>
        </mxCell>
        <mxCell id="iIViWj5kwo_5ftV5tEHs-55" value="q12" style="ellipse;whiteSpace=wrap;html=1;rounded=0;shadow=1;strokeColor=#666666;strokeWidth=1;fontSize=30;align=center;fillColor=#f5f5f5;" parent="1" vertex="1">
          <mxGeometry x="3709.8599999999997" y="1000" width="80" height="80" as="geometry" />
        </mxCell>
        <mxCell id="iIViWj5kwo_5ftV5tEHs-57" value="" style="edgeStyle=none;curved=1;rounded=0;orthogonalLoop=1;jettySize=auto;html=1;fontSize=12;startSize=8;endSize=8;" parent="1" source="iIViWj5kwo_5ftV5tEHs-59" edge="1">
          <mxGeometry relative="1" as="geometry">
            <mxPoint x="3869.8599999999997" y="1429.47" as="targetPoint" />
          </mxGeometry>
        </mxCell>
        <mxCell id="iIViWj5kwo_5ftV5tEHs-58" value="&lt;font style=&quot;font-size: 20px;&quot;&gt;y&lt;/font&gt;" style="edgeLabel;html=1;align=center;verticalAlign=middle;resizable=0;points=[];fontSize=12;" parent="iIViWj5kwo_5ftV5tEHs-57" vertex="1" connectable="0">
          <mxGeometry x="-0.1667" relative="1" as="geometry">
            <mxPoint y="-181" as="offset" />
          </mxGeometry>
        </mxCell>
        <mxCell id="JUdrio8stWn7Q4SskedR-35" value="&lt;font style=&quot;font-size: 20px;&quot;&gt;x&lt;/font&gt;" style="edgeLabel;html=1;align=center;verticalAlign=middle;resizable=0;points=[];" parent="iIViWj5kwo_5ftV5tEHs-57" vertex="1" connectable="0">
          <mxGeometry x="-0.0542" y="-1" relative="1" as="geometry">
            <mxPoint y="-21" as="offset" />
          </mxGeometry>
        </mxCell>
        <mxCell id="iIViWj5kwo_5ftV5tEHs-59" value="q20" style="ellipse;whiteSpace=wrap;html=1;rounded=0;shadow=1;strokeColor=#666666;strokeWidth=1;fontSize=30;align=center;fillColor=#f5f5f5;" parent="1" vertex="1">
          <mxGeometry x="3709.8599999999997" y="1389.47" width="80" height="80" as="geometry" />
        </mxCell>
        <mxCell id="EqjX6n_9IyycGUnKyrME-22" value="M = (M = ({x, y, z}, {q0, q1, q2, q3, q4, q5, q6, q7, q8, q9, q10, q11, q12, q13, q14, q15, q16, q17, q18, q19, q20, q21, q22, q23, q24, q25, q26, q27, q28, q29, q30, q31, q32, q33, q34, q35, q36, q37, q38, q39, q40, q41, q42, q43, q44}, δ, q0, {q44}))" style="text;whiteSpace=wrap;fontSize=45;" parent="1" vertex="1">
          <mxGeometry y="-140" width="3810" height="30" as="geometry" />
        </mxCell>
        <mxCell id="YRFl2U0ToXUnBVI3a0Rl-46" style="edgeStyle=none;curved=1;rounded=0;orthogonalLoop=1;jettySize=auto;html=1;entryX=0;entryY=0.5;entryDx=0;entryDy=0;fontSize=12;startSize=8;endSize=8;" parent="1" source="YRFl2U0ToXUnBVI3a0Rl-48" target="YRFl2U0ToXUnBVI3a0Rl-74" edge="1">
          <mxGeometry relative="1" as="geometry">
            <mxPoint x="3993.8599999999687" y="1040" as="targetPoint" />
          </mxGeometry>
        </mxCell>
        <mxCell id="YRFl2U0ToXUnBVI3a0Rl-47" value="&lt;span style=&quot;font-size: 20px;&quot;&gt;x&lt;/span&gt;" style="edgeLabel;html=1;align=center;verticalAlign=middle;resizable=0;points=[];fontSize=12;" parent="YRFl2U0ToXUnBVI3a0Rl-46" vertex="1" connectable="0">
          <mxGeometry x="-0.0833" y="3" relative="1" as="geometry">
            <mxPoint y="-17" as="offset" />
          </mxGeometry>
        </mxCell>
        <mxCell id="YRFl2U0ToXUnBVI3a0Rl-48" value="q13" style="ellipse;whiteSpace=wrap;html=1;rounded=0;shadow=1;strokeColor=#666666;strokeWidth=1;fontSize=30;align=center;fillColor=#f5f5f5;" parent="1" vertex="1">
          <mxGeometry x="3873.8599999999997" y="1000" width="80" height="80" as="geometry" />
        </mxCell>
        <mxCell id="YRFl2U0ToXUnBVI3a0Rl-49" value="" style="edgeStyle=none;curved=1;rounded=0;orthogonalLoop=1;jettySize=auto;html=1;fontSize=12;startSize=8;endSize=8;" parent="1" source="YRFl2U0ToXUnBVI3a0Rl-51" edge="1">
          <mxGeometry relative="1" as="geometry">
            <mxPoint x="4029.8599999999687" y="1429.4700000000005" as="targetPoint" />
          </mxGeometry>
        </mxCell>
        <mxCell id="YRFl2U0ToXUnBVI3a0Rl-50" value="&lt;font style=&quot;font-size: 20px;&quot;&gt;z&lt;/font&gt;" style="edgeLabel;html=1;align=center;verticalAlign=middle;resizable=0;points=[];fontSize=12;" parent="YRFl2U0ToXUnBVI3a0Rl-49" vertex="1" connectable="0">
          <mxGeometry x="-0.1667" relative="1" as="geometry">
            <mxPoint y="-181" as="offset" />
          </mxGeometry>
        </mxCell>
        <mxCell id="YRFl2U0ToXUnBVI3a0Rl-51" value="q22" style="ellipse;whiteSpace=wrap;html=1;rounded=0;shadow=1;strokeColor=#666666;strokeWidth=1;fontSize=30;align=center;fillColor=#f5f5f5;" parent="1" vertex="1">
          <mxGeometry x="3869.8599999999997" y="1389.47" width="80" height="80" as="geometry" />
        </mxCell>
        <mxCell id="JUdrio8stWn7Q4SskedR-19" style="edgeStyle=orthogonalEdgeStyle;rounded=0;orthogonalLoop=1;jettySize=auto;html=1;exitX=1;exitY=0.5;exitDx=0;exitDy=0;endArrow=none;endFill=0;" parent="1" source="YRFl2U0ToXUnBVI3a0Rl-74" edge="1">
          <mxGeometry relative="1" as="geometry">
            <mxPoint x="4189.86" y="1279.47" as="targetPoint" />
          </mxGeometry>
        </mxCell>
        <mxCell id="YRFl2U0ToXUnBVI3a0Rl-74" value="q14" style="ellipse;whiteSpace=wrap;html=1;rounded=0;shadow=1;strokeColor=#666666;strokeWidth=1;fontSize=30;align=center;fillColor=#f5f5f5;" parent="1" vertex="1">
          <mxGeometry x="4029.8599999999997" y="1000" width="80" height="80" as="geometry" />
        </mxCell>
        <mxCell id="YRFl2U0ToXUnBVI3a0Rl-77" value="q23" style="ellipse;whiteSpace=wrap;html=1;rounded=0;shadow=1;strokeColor=#666666;strokeWidth=1;fontSize=30;align=center;fillColor=#f5f5f5;" parent="1" vertex="1">
          <mxGeometry x="4029.8599999999997" y="1389.47" width="80" height="80" as="geometry" />
        </mxCell>
        <mxCell id="YRFl2U0ToXUnBVI3a0Rl-78" value="q30" style="ellipse;whiteSpace=wrap;html=1;rounded=0;shadow=1;strokeColor=#666666;strokeWidth=1;fontSize=30;align=center;fillColor=#C7C7C7;" parent="1" vertex="1">
          <mxGeometry x="4106.33" y="880" width="80" height="80" as="geometry" />
        </mxCell>
        <mxCell id="YRFl2U0ToXUnBVI3a0Rl-79" value="q28" style="ellipse;whiteSpace=wrap;html=1;rounded=0;shadow=1;strokeColor=#666666;strokeWidth=1;fontSize=30;align=center;fillColor=#C7C7C7;" parent="1" vertex="1">
          <mxGeometry x="3953.8599999999997" y="880" width="80" height="80" as="geometry" />
        </mxCell>
        <mxCell id="YRFl2U0ToXUnBVI3a0Rl-82" value="q25" style="ellipse;whiteSpace=wrap;html=1;rounded=0;shadow=1;strokeColor=#666666;strokeWidth=1;fontSize=30;align=center;fillColor=#C7C7C7;" parent="1" vertex="1">
          <mxGeometry x="3909.8599999999997" y="1509.47" width="80" height="80" as="geometry" />
        </mxCell>
        <mxCell id="YRFl2U0ToXUnBVI3a0Rl-83" value="q27" style="ellipse;whiteSpace=wrap;html=1;rounded=0;shadow=1;strokeColor=#666666;strokeWidth=1;fontSize=30;align=center;fillColor=#C7C7C7;" parent="1" vertex="1">
          <mxGeometry x="4149.86" y="1509.47" width="80" height="80" as="geometry" />
        </mxCell>
        <mxCell id="YRFl2U0ToXUnBVI3a0Rl-86" style="edgeStyle=none;curved=0;rounded=0;orthogonalLoop=1;jettySize=auto;html=1;exitX=0.5;exitY=0;exitDx=0;exitDy=0;entryX=1;entryY=0.5;entryDx=0;entryDy=0;fontSize=12;startSize=8;endSize=8;" parent="1" target="YRFl2U0ToXUnBVI3a0Rl-79" edge="1">
          <mxGeometry relative="1" as="geometry">
            <mxPoint x="4069.8599999999997" y="1000" as="sourcePoint" />
            <mxPoint x="4109.86" y="800" as="targetPoint" />
            <Array as="points">
              <mxPoint x="4069.8599999999997" y="920" />
            </Array>
          </mxGeometry>
        </mxCell>
        <mxCell id="YRFl2U0ToXUnBVI3a0Rl-87" value="&lt;span style=&quot;font-size: 20px;&quot;&gt;y&lt;/span&gt;" style="edgeLabel;html=1;align=center;verticalAlign=middle;resizable=0;points=[];fontSize=12;" parent="YRFl2U0ToXUnBVI3a0Rl-86" vertex="1" connectable="0">
          <mxGeometry x="0.7722" y="2" relative="1" as="geometry">
            <mxPoint x="3" y="-22" as="offset" />
          </mxGeometry>
        </mxCell>
        <mxCell id="YRFl2U0ToXUnBVI3a0Rl-88" style="edgeStyle=none;curved=0;rounded=0;orthogonalLoop=1;jettySize=auto;html=1;exitX=0.5;exitY=0;exitDx=0;exitDy=0;entryX=0;entryY=0.5;entryDx=0;entryDy=0;fontSize=12;startSize=8;endSize=8;" parent="1" target="YRFl2U0ToXUnBVI3a0Rl-78" edge="1">
          <mxGeometry relative="1" as="geometry">
            <mxPoint x="4069.8599999999997" y="1000" as="sourcePoint" />
            <mxPoint x="4109.86" y="920" as="targetPoint" />
            <Array as="points">
              <mxPoint x="4069.8599999999997" y="920" />
            </Array>
          </mxGeometry>
        </mxCell>
        <mxCell id="YRFl2U0ToXUnBVI3a0Rl-89" value="&lt;font style=&quot;font-size: 20px;&quot;&gt;y&lt;/font&gt;" style="edgeLabel;html=1;align=center;verticalAlign=middle;resizable=0;points=[];fontSize=12;" parent="YRFl2U0ToXUnBVI3a0Rl-88" vertex="1" connectable="0">
          <mxGeometry x="0.5778" y="1" relative="1" as="geometry">
            <mxPoint x="8" y="-19" as="offset" />
          </mxGeometry>
        </mxCell>
        <mxCell id="YRFl2U0ToXUnBVI3a0Rl-92" style="edgeStyle=none;curved=0;rounded=0;orthogonalLoop=1;jettySize=auto;html=1;exitX=0.5;exitY=1;exitDx=0;exitDy=0;entryX=0;entryY=0.5;entryDx=0;entryDy=0;fontSize=12;startSize=8;endSize=8;" parent="1" target="YRFl2U0ToXUnBVI3a0Rl-83" edge="1">
          <mxGeometry relative="1" as="geometry">
            <mxPoint x="4069.8599999999997" y="1469.47" as="sourcePoint" />
            <Array as="points">
              <mxPoint x="4069.8599999999997" y="1549.47" />
            </Array>
            <mxPoint x="4109.859999999984" y="1549.47" as="targetPoint" />
          </mxGeometry>
        </mxCell>
        <mxCell id="YRFl2U0ToXUnBVI3a0Rl-93" value="&lt;font style=&quot;font-size: 20px;&quot;&gt;x&lt;/font&gt;" style="edgeLabel;html=1;align=center;verticalAlign=middle;resizable=0;points=[];fontSize=12;" parent="YRFl2U0ToXUnBVI3a0Rl-92" vertex="1" connectable="0">
          <mxGeometry x="0.5868" y="4" relative="1" as="geometry">
            <mxPoint x="-7" y="-16" as="offset" />
          </mxGeometry>
        </mxCell>
        <mxCell id="YRFl2U0ToXUnBVI3a0Rl-94" style="edgeStyle=none;curved=0;rounded=0;orthogonalLoop=1;jettySize=auto;html=1;exitX=0.5;exitY=1;exitDx=0;exitDy=0;entryX=1;entryY=0.5;entryDx=0;entryDy=0;fontSize=12;startSize=8;endSize=8;" parent="1" target="YRFl2U0ToXUnBVI3a0Rl-82" edge="1">
          <mxGeometry relative="1" as="geometry">
            <mxPoint x="4069.8599999999997" y="1469.47" as="sourcePoint" />
            <Array as="points">
              <mxPoint x="4069.8599999999997" y="1549.47" />
            </Array>
            <mxPoint x="4109.859999999984" y="1669.47" as="targetPoint" />
          </mxGeometry>
        </mxCell>
        <mxCell id="YRFl2U0ToXUnBVI3a0Rl-95" value="&lt;font style=&quot;font-size: 20px;&quot;&gt;x&lt;/font&gt;" style="edgeLabel;html=1;align=center;verticalAlign=middle;resizable=0;points=[];fontSize=12;" parent="YRFl2U0ToXUnBVI3a0Rl-94" vertex="1" connectable="0">
          <mxGeometry x="0.7841" y="1" relative="1" as="geometry">
            <mxPoint x="23" y="-19" as="offset" />
          </mxGeometry>
        </mxCell>
        <mxCell id="YRFl2U0ToXUnBVI3a0Rl-101" style="edgeStyle=none;curved=1;rounded=0;orthogonalLoop=1;jettySize=auto;html=1;exitX=1;exitY=0.5;exitDx=0;exitDy=0;fontSize=12;startSize=8;endSize=8;entryX=0;entryY=0.5;entryDx=0;entryDy=0;" parent="1" source="YRFl2U0ToXUnBVI3a0Rl-109" target="iIViWj5kwo_5ftV5tEHs-55" edge="1">
          <mxGeometry relative="1" as="geometry">
            <mxPoint x="3659.8599999999997" y="1089.47" as="targetPoint" />
          </mxGeometry>
        </mxCell>
        <mxCell id="YRFl2U0ToXUnBVI3a0Rl-102" value="&lt;font style=&quot;font-size: 20px;&quot;&gt;z&lt;/font&gt;" style="edgeLabel;html=1;align=center;verticalAlign=middle;resizable=0;points=[];fontSize=12;" parent="YRFl2U0ToXUnBVI3a0Rl-101" vertex="1" connectable="0">
          <mxGeometry x="-0.4769" y="3" relative="1" as="geometry">
            <mxPoint x="19" y="-17" as="offset" />
          </mxGeometry>
        </mxCell>
        <mxCell id="YRFl2U0ToXUnBVI3a0Rl-109" value="q11" style="ellipse;whiteSpace=wrap;html=1;rounded=0;shadow=1;strokeColor=#666666;strokeWidth=1;fontSize=30;align=center;fillColor=#f5f5f5;" parent="1" vertex="1">
          <mxGeometry x="3549.8599999999997" y="1000" width="80" height="80" as="geometry" />
        </mxCell>
        <mxCell id="YRFl2U0ToXUnBVI3a0Rl-110" style="edgeStyle=none;curved=0;rounded=0;orthogonalLoop=1;jettySize=auto;html=1;entryX=0;entryY=0.5;entryDx=0;entryDy=0;fontSize=12;startSize=8;endSize=8;" parent="1" source="YRFl2U0ToXUnBVI3a0Rl-114" target="YRFl2U0ToXUnBVI3a0Rl-109" edge="1">
          <mxGeometry relative="1" as="geometry">
            <Array as="points">
              <mxPoint x="3479.8599999999997" y="1269.47" />
              <mxPoint x="3479.8599999999997" y="1109.47" />
              <mxPoint x="3479.8599999999997" y="1040.47" />
            </Array>
          </mxGeometry>
        </mxCell>
        <mxCell id="YRFl2U0ToXUnBVI3a0Rl-111" value="&lt;font style=&quot;font-size: 20px;&quot;&gt;w&lt;/font&gt;" style="edgeLabel;html=1;align=center;verticalAlign=middle;resizable=0;points=[];fontSize=12;" parent="YRFl2U0ToXUnBVI3a0Rl-110" vertex="1" connectable="0">
          <mxGeometry x="0.7841" y="2" relative="1" as="geometry">
            <mxPoint x="2" y="-19" as="offset" />
          </mxGeometry>
        </mxCell>
        <mxCell id="i9ecy3kwUGsUXFgubPl8-27" style="edgeStyle=orthogonalEdgeStyle;rounded=0;orthogonalLoop=1;jettySize=auto;html=1;entryX=0.5;entryY=0;entryDx=0;entryDy=0;" parent="1" source="YRFl2U0ToXUnBVI3a0Rl-114" target="YRFl2U0ToXUnBVI3a0Rl-114" edge="1">
          <mxGeometry relative="1" as="geometry">
            <mxPoint x="3359.8599999999997" y="1219.47" as="targetPoint" />
            <Array as="points">
              <mxPoint x="3289.8599999999997" y="1269.47" />
              <mxPoint x="3289.8599999999997" y="1199.47" />
              <mxPoint x="3349.8599999999997" y="1199.47" />
            </Array>
          </mxGeometry>
        </mxCell>
        <mxCell id="JUdrio8stWn7Q4SskedR-11" value="" style="edgeStyle=orthogonalEdgeStyle;rounded=0;orthogonalLoop=1;jettySize=auto;html=1;" parent="1" source="YRFl2U0ToXUnBVI3a0Rl-114" target="JUdrio8stWn7Q4SskedR-10" edge="1">
          <mxGeometry relative="1" as="geometry" />
        </mxCell>
        <mxCell id="YRFl2U0ToXUnBVI3a0Rl-114" value="q10" style="ellipse;whiteSpace=wrap;html=1;rounded=0;shadow=1;strokeColor=#666666;strokeWidth=1;fontSize=30;align=center;fillColor=#f5f5f5;" parent="1" vertex="1">
          <mxGeometry x="3309.8599999999997" y="1229.47" width="80" height="80" as="geometry" />
        </mxCell>
        <mxCell id="YRFl2U0ToXUnBVI3a0Rl-115" value="" style="edgeStyle=none;curved=1;rounded=0;orthogonalLoop=1;jettySize=auto;html=1;fontSize=12;startSize=8;endSize=8;" parent="1" source="YRFl2U0ToXUnBVI3a0Rl-121" edge="1">
          <mxGeometry relative="1" as="geometry">
            <mxPoint x="3709.8599999999997" y="1429.47" as="targetPoint" />
          </mxGeometry>
        </mxCell>
        <mxCell id="YRFl2U0ToXUnBVI3a0Rl-116" value="&lt;font style=&quot;font-size: 20px;&quot;&gt;x&lt;/font&gt;" style="edgeLabel;html=1;align=center;verticalAlign=middle;resizable=0;points=[];fontSize=12;" parent="YRFl2U0ToXUnBVI3a0Rl-115" vertex="1" connectable="0">
          <mxGeometry x="-0.0833" y="2" relative="1" as="geometry">
            <mxPoint y="-178" as="offset" />
          </mxGeometry>
        </mxCell>
        <mxCell id="JUdrio8stWn7Q4SskedR-33" value="&lt;font style=&quot;font-size: 20px;&quot;&gt;w&lt;/font&gt;" style="edgeLabel;html=1;align=center;verticalAlign=middle;resizable=0;points=[];" parent="YRFl2U0ToXUnBVI3a0Rl-115" vertex="1" connectable="0">
          <mxGeometry x="-0.0333" relative="1" as="geometry">
            <mxPoint y="-20" as="offset" />
          </mxGeometry>
        </mxCell>
        <mxCell id="YRFl2U0ToXUnBVI3a0Rl-121" value="q19" style="ellipse;whiteSpace=wrap;html=1;rounded=0;shadow=1;strokeColor=#666666;strokeWidth=1;fontSize=30;align=center;fillColor=#f5f5f5;" parent="1" vertex="1">
          <mxGeometry x="3549.8599999999997" y="1389.47" width="80" height="80" as="geometry" />
        </mxCell>
        <mxCell id="YRFl2U0ToXUnBVI3a0Rl-133" style="edgeStyle=none;curved=1;rounded=0;orthogonalLoop=1;jettySize=auto;html=1;exitX=1;exitY=0.5;exitDx=0;exitDy=0;fontSize=12;startSize=8;endSize=8;entryX=0;entryY=0.5;entryDx=0;entryDy=0;" parent="1" source="YRFl2U0ToXUnBVI3a0Rl-160" edge="1">
          <mxGeometry relative="1" as="geometry">
            <mxPoint x="4879.86" y="1120" as="targetPoint" />
          </mxGeometry>
        </mxCell>
        <mxCell id="YRFl2U0ToXUnBVI3a0Rl-134" value="&lt;font style=&quot;font-size: 20px;&quot;&gt;x&lt;/font&gt;" style="edgeLabel;html=1;align=center;verticalAlign=middle;resizable=0;points=[];fontSize=12;" parent="YRFl2U0ToXUnBVI3a0Rl-133" vertex="1" connectable="0">
          <mxGeometry x="-0.4769" y="3" relative="1" as="geometry">
            <mxPoint x="19" y="-17" as="offset" />
          </mxGeometry>
        </mxCell>
        <mxCell id="YRFl2U0ToXUnBVI3a0Rl-141" style="edgeStyle=none;curved=0;rounded=0;orthogonalLoop=1;jettySize=auto;html=1;entryX=0;entryY=0.5;entryDx=0;entryDy=0;fontSize=12;startSize=8;endSize=8;" parent="1" source="YRFl2U0ToXUnBVI3a0Rl-161" target="YRFl2U0ToXUnBVI3a0Rl-160" edge="1">
          <mxGeometry relative="1" as="geometry">
            <Array as="points">
              <mxPoint x="4649.86" y="1280" />
              <mxPoint x="4649.86" y="1120" />
            </Array>
          </mxGeometry>
        </mxCell>
        <mxCell id="YRFl2U0ToXUnBVI3a0Rl-142" value="&lt;font style=&quot;font-size: 20px;&quot;&gt;w&lt;/font&gt;" style="edgeLabel;html=1;align=center;verticalAlign=middle;resizable=0;points=[];fontSize=12;" parent="YRFl2U0ToXUnBVI3a0Rl-141" vertex="1" connectable="0">
          <mxGeometry x="0.7841" y="2" relative="1" as="geometry">
            <mxPoint y="-18" as="offset" />
          </mxGeometry>
        </mxCell>
        <mxCell id="YRFl2U0ToXUnBVI3a0Rl-143" style="edgeStyle=none;curved=0;rounded=0;orthogonalLoop=1;jettySize=auto;html=1;exitX=1;exitY=0.5;exitDx=0;exitDy=0;fontSize=12;startSize=8;endSize=8;" parent="1" source="YRFl2U0ToXUnBVI3a0Rl-161" target="YRFl2U0ToXUnBVI3a0Rl-162" edge="1">
          <mxGeometry relative="1" as="geometry">
            <Array as="points">
              <mxPoint x="4649.86" y="1280" />
              <mxPoint x="4649.86" y="1440" />
            </Array>
          </mxGeometry>
        </mxCell>
        <mxCell id="YRFl2U0ToXUnBVI3a0Rl-144" value="&lt;span style=&quot;font-size: 20px;&quot;&gt;y&lt;/span&gt;" style="edgeLabel;html=1;align=center;verticalAlign=middle;resizable=0;points=[];fontSize=12;" parent="YRFl2U0ToXUnBVI3a0Rl-143" vertex="1" connectable="0">
          <mxGeometry x="0.7841" relative="1" as="geometry">
            <mxPoint y="-20" as="offset" />
          </mxGeometry>
        </mxCell>
        <mxCell id="YRFl2U0ToXUnBVI3a0Rl-145" value="" style="edgeStyle=none;curved=1;rounded=0;orthogonalLoop=1;jettySize=auto;html=1;fontSize=12;startSize=8;endSize=8;" parent="1" source="YRFl2U0ToXUnBVI3a0Rl-162" edge="1">
          <mxGeometry relative="1" as="geometry">
            <mxPoint x="4879.86" y="1440" as="targetPoint" />
          </mxGeometry>
        </mxCell>
        <mxCell id="YRFl2U0ToXUnBVI3a0Rl-146" value="&lt;font style=&quot;font-size: 20px;&quot;&gt;z&lt;/font&gt;" style="edgeLabel;html=1;align=center;verticalAlign=middle;resizable=0;points=[];fontSize=12;" parent="YRFl2U0ToXUnBVI3a0Rl-145" vertex="1" connectable="0">
          <mxGeometry x="-0.0833" y="2" relative="1" as="geometry">
            <mxPoint y="-18" as="offset" />
          </mxGeometry>
        </mxCell>
        <mxCell id="YRFl2U0ToXUnBVI3a0Rl-160" value="q24" style="ellipse;whiteSpace=wrap;html=1;rounded=0;shadow=1;strokeColor=#666666;strokeWidth=1;fontSize=30;align=center;fillColor=#f5f5f5;" parent="1" vertex="1">
          <mxGeometry x="4719.86" y="1080" width="80" height="80" as="geometry" />
        </mxCell>
        <mxCell id="YRFl2U0ToXUnBVI3a0Rl-204" style="edgeStyle=orthogonalEdgeStyle;rounded=0;orthogonalLoop=1;jettySize=auto;html=1;exitX=1;exitY=0.5;exitDx=0;exitDy=0;" parent="1" source="YRFl2U0ToXUnBVI3a0Rl-161" edge="1">
          <mxGeometry relative="1" as="geometry">
            <mxPoint x="4719.86" y="1280" as="targetPoint" />
          </mxGeometry>
        </mxCell>
        <mxCell id="YRFl2U0ToXUnBVI3a0Rl-234" value="&lt;font style=&quot;font-size: 20px;&quot;&gt;x&lt;/font&gt;" style="edgeLabel;html=1;align=center;verticalAlign=middle;resizable=0;points=[];" parent="YRFl2U0ToXUnBVI3a0Rl-204" vertex="1" connectable="0">
          <mxGeometry x="0.5088" y="1" relative="1" as="geometry">
            <mxPoint y="-19" as="offset" />
          </mxGeometry>
        </mxCell>
        <mxCell id="YRFl2U0ToXUnBVI3a0Rl-161" value="q23" style="ellipse;whiteSpace=wrap;html=1;rounded=0;shadow=1;strokeColor=#666666;strokeWidth=1;fontSize=30;align=center;fillColor=#f5f5f5;" parent="1" vertex="1">
          <mxGeometry x="4479.86" y="1240" width="80" height="80" as="geometry" />
        </mxCell>
        <mxCell id="YRFl2U0ToXUnBVI3a0Rl-217" value="" style="edgeStyle=orthogonalEdgeStyle;rounded=0;orthogonalLoop=1;jettySize=auto;html=1;" parent="1" source="YRFl2U0ToXUnBVI3a0Rl-162" target="YRFl2U0ToXUnBVI3a0Rl-216" edge="1">
          <mxGeometry relative="1" as="geometry" />
        </mxCell>
        <mxCell id="YRFl2U0ToXUnBVI3a0Rl-162" value="q30" style="ellipse;whiteSpace=wrap;html=1;rounded=0;shadow=1;strokeColor=#666666;strokeWidth=1;fontSize=30;align=center;fillColor=#f5f5f5;" parent="1" vertex="1">
          <mxGeometry x="4719.86" y="1400" width="80" height="80" as="geometry" />
        </mxCell>
        <mxCell id="YRFl2U0ToXUnBVI3a0Rl-206" value="" style="edgeStyle=orthogonalEdgeStyle;rounded=0;orthogonalLoop=1;jettySize=auto;html=1;" parent="1" source="YRFl2U0ToXUnBVI3a0Rl-203" target="YRFl2U0ToXUnBVI3a0Rl-205" edge="1">
          <mxGeometry relative="1" as="geometry" />
        </mxCell>
        <mxCell id="YRFl2U0ToXUnBVI3a0Rl-235" value="&lt;font style=&quot;font-size: 20px;&quot;&gt;y&lt;/font&gt;" style="edgeLabel;html=1;align=center;verticalAlign=middle;resizable=0;points=[];" parent="YRFl2U0ToXUnBVI3a0Rl-206" vertex="1" connectable="0">
          <mxGeometry x="-0.1178" relative="1" as="geometry">
            <mxPoint x="5" y="-20" as="offset" />
          </mxGeometry>
        </mxCell>
        <mxCell id="YRFl2U0ToXUnBVI3a0Rl-203" value="q27" style="ellipse;whiteSpace=wrap;html=1;rounded=0;shadow=1;strokeColor=#666666;strokeWidth=1;fontSize=30;align=center;fillColor=#f5f5f5;" parent="1" vertex="1">
          <mxGeometry x="4719.86" y="1240" width="80" height="80" as="geometry" />
        </mxCell>
        <mxCell id="YRFl2U0ToXUnBVI3a0Rl-208" value="" style="edgeStyle=orthogonalEdgeStyle;rounded=0;orthogonalLoop=1;jettySize=auto;html=1;" parent="1" source="YRFl2U0ToXUnBVI3a0Rl-205" target="YRFl2U0ToXUnBVI3a0Rl-207" edge="1">
          <mxGeometry relative="1" as="geometry" />
        </mxCell>
        <mxCell id="YRFl2U0ToXUnBVI3a0Rl-237" value="&lt;font style=&quot;font-size: 20px;&quot;&gt;z&lt;/font&gt;" style="edgeLabel;html=1;align=center;verticalAlign=middle;resizable=0;points=[];" parent="YRFl2U0ToXUnBVI3a0Rl-208" vertex="1" connectable="0">
          <mxGeometry x="0.0144" y="1" relative="1" as="geometry">
            <mxPoint y="-19" as="offset" />
          </mxGeometry>
        </mxCell>
        <mxCell id="YRFl2U0ToXUnBVI3a0Rl-205" value="q28" style="ellipse;whiteSpace=wrap;html=1;fontSize=30;fillColor=#f5f5f5;strokeColor=#666666;rounded=0;shadow=1;strokeWidth=1;" parent="1" vertex="1">
          <mxGeometry x="4879.86" y="1240" width="80" height="80" as="geometry" />
        </mxCell>
        <mxCell id="YRFl2U0ToXUnBVI3a0Rl-210" value="" style="edgeStyle=orthogonalEdgeStyle;rounded=0;orthogonalLoop=1;jettySize=auto;html=1;entryX=0;entryY=0.5;entryDx=0;entryDy=0;" parent="1" source="YRFl2U0ToXUnBVI3a0Rl-207" target="i9ecy3kwUGsUXFgubPl8-21" edge="1">
          <mxGeometry relative="1" as="geometry">
            <mxPoint x="5199.86" y="1279.9999999999998" as="targetPoint" />
          </mxGeometry>
        </mxCell>
        <mxCell id="YRFl2U0ToXUnBVI3a0Rl-238" value="&lt;span style=&quot;font-size: 20px;&quot;&gt;x&lt;/span&gt;" style="edgeLabel;html=1;align=center;verticalAlign=middle;resizable=0;points=[];" parent="YRFl2U0ToXUnBVI3a0Rl-210" vertex="1" connectable="0">
          <mxGeometry x="-0.0144" relative="1" as="geometry">
            <mxPoint x="-38" y="-20" as="offset" />
          </mxGeometry>
        </mxCell>
        <mxCell id="YRFl2U0ToXUnBVI3a0Rl-207" value="q29" style="ellipse;whiteSpace=wrap;html=1;fontSize=30;fillColor=#f5f5f5;strokeColor=#666666;rounded=0;shadow=1;strokeWidth=1;" parent="1" vertex="1">
          <mxGeometry x="5039.86" y="1240" width="80" height="80" as="geometry" />
        </mxCell>
        <mxCell id="YRFl2U0ToXUnBVI3a0Rl-213" value="" style="edgeStyle=orthogonalEdgeStyle;rounded=0;orthogonalLoop=1;jettySize=auto;html=1;" parent="1" source="YRFl2U0ToXUnBVI3a0Rl-211" target="YRFl2U0ToXUnBVI3a0Rl-212" edge="1">
          <mxGeometry relative="1" as="geometry" />
        </mxCell>
        <mxCell id="YRFl2U0ToXUnBVI3a0Rl-211" value="q25" style="ellipse;whiteSpace=wrap;html=1;rounded=0;shadow=1;strokeColor=#666666;strokeWidth=1;fontSize=30;align=center;fillColor=#f5f5f5;" parent="1" vertex="1">
          <mxGeometry x="4879.86" y="1080" width="80" height="80" as="geometry" />
        </mxCell>
        <mxCell id="YRFl2U0ToXUnBVI3a0Rl-212" value="q26" style="ellipse;whiteSpace=wrap;html=1;fontSize=30;fillColor=#f5f5f5;strokeColor=#666666;rounded=0;shadow=1;strokeWidth=1;" parent="1" vertex="1">
          <mxGeometry x="5039.86" y="1080" width="80" height="80" as="geometry" />
        </mxCell>
        <mxCell id="i9ecy3kwUGsUXFgubPl8-25" style="edgeStyle=orthogonalEdgeStyle;rounded=0;orthogonalLoop=1;jettySize=auto;html=1;exitX=1;exitY=0.5;exitDx=0;exitDy=0;endArrow=none;endFill=0;" parent="1" edge="1">
          <mxGeometry relative="1" as="geometry">
            <mxPoint x="5199.86" y="1279.21" as="targetPoint" />
            <mxPoint x="5119.86" y="1119.7399999999998" as="sourcePoint" />
          </mxGeometry>
        </mxCell>
        <mxCell id="YRFl2U0ToXUnBVI3a0Rl-219" value="" style="edgeStyle=orthogonalEdgeStyle;rounded=0;orthogonalLoop=1;jettySize=auto;html=1;" parent="1" source="YRFl2U0ToXUnBVI3a0Rl-216" target="YRFl2U0ToXUnBVI3a0Rl-218" edge="1">
          <mxGeometry relative="1" as="geometry" />
        </mxCell>
        <mxCell id="YRFl2U0ToXUnBVI3a0Rl-232" value="&lt;font style=&quot;font-size: 20px;&quot;&gt;w&lt;/font&gt;" style="edgeLabel;html=1;align=center;verticalAlign=middle;resizable=0;points=[];" parent="YRFl2U0ToXUnBVI3a0Rl-219" vertex="1" connectable="0">
          <mxGeometry x="-0.1036" y="-1" relative="1" as="geometry">
            <mxPoint y="-21" as="offset" />
          </mxGeometry>
        </mxCell>
        <mxCell id="YRFl2U0ToXUnBVI3a0Rl-216" value="q31" style="ellipse;whiteSpace=wrap;html=1;fontSize=30;fillColor=#f5f5f5;strokeColor=#666666;rounded=0;shadow=1;strokeWidth=1;" parent="1" vertex="1">
          <mxGeometry x="4879.86" y="1400" width="80" height="80" as="geometry" />
        </mxCell>
        <mxCell id="YRFl2U0ToXUnBVI3a0Rl-218" value="q32" style="ellipse;whiteSpace=wrap;html=1;fontSize=30;fillColor=#f5f5f5;strokeColor=#666666;rounded=0;shadow=1;strokeWidth=1;" parent="1" vertex="1">
          <mxGeometry x="5039.86" y="1400" width="80" height="80" as="geometry" />
        </mxCell>
        <mxCell id="YRFl2U0ToXUnBVI3a0Rl-222" value="&lt;font style=&quot;font-size: 20px;&quot;&gt;x&lt;/font&gt;" style="edgeLabel;html=1;align=center;verticalAlign=middle;resizable=0;points=[];fontSize=12;" parent="1" vertex="1" connectable="0">
          <mxGeometry x="4689.861914893617" y="1110" as="geometry">
            <mxPoint x="302" y="-10" as="offset" />
          </mxGeometry>
        </mxCell>
        <mxCell id="YRFl2U0ToXUnBVI3a0Rl-224" value="&lt;font style=&quot;font-size: 20px;&quot;&gt;z&lt;/font&gt;" style="edgeLabel;html=1;align=center;verticalAlign=middle;resizable=0;points=[];fontSize=12;" parent="1" vertex="1" connectable="0">
          <mxGeometry x="4859.861914893617" y="1110" as="geometry">
            <mxPoint x="302" y="-10" as="offset" />
          </mxGeometry>
        </mxCell>
        <mxCell id="OryJi__Ae5CdnrV1uTCe-56" style="edgeStyle=orthogonalEdgeStyle;rounded=0;orthogonalLoop=1;jettySize=auto;html=1;entryX=0;entryY=0.5;entryDx=0;entryDy=0;" parent="1" source="i9ecy3kwUGsUXFgubPl8-9" target="OryJi__Ae5CdnrV1uTCe-55" edge="1">
          <mxGeometry relative="1" as="geometry" />
        </mxCell>
        <mxCell id="i9ecy3kwUGsUXFgubPl8-9" value="q4" style="ellipse;whiteSpace=wrap;html=1;rounded=0;shadow=1;strokeColor=#666666;strokeWidth=1;fontSize=30;align=center;fillColor=#F5F5F5;" parent="1" vertex="1">
          <mxGeometry x="680" y="540" width="80" height="80" as="geometry" />
        </mxCell>
        <mxCell id="i9ecy3kwUGsUXFgubPl8-12" value="&lt;font style=&quot;font-size: 20px;&quot;&gt;y&lt;/font&gt;" style="edgeLabel;html=1;align=center;verticalAlign=middle;resizable=0;points=[];fontSize=12;" parent="1" vertex="1" connectable="0">
          <mxGeometry x="4149.860588235295" y="1019.4699999999999" as="geometry" />
        </mxCell>
        <mxCell id="i9ecy3kwUGsUXFgubPl8-14" value="" style="edgeStyle=none;curved=0;rounded=0;orthogonalLoop=1;jettySize=auto;html=1;fontSize=12;startSize=8;endSize=8;endArrow=none;endFill=0;" parent="1" edge="1">
          <mxGeometry relative="1" as="geometry">
            <mxPoint x="4109.86" y="1429.47" as="sourcePoint" />
            <mxPoint x="4189.86" y="1280" as="targetPoint" />
            <Array as="points">
              <mxPoint x="4189.86" y="1429" />
            </Array>
          </mxGeometry>
        </mxCell>
        <mxCell id="i9ecy3kwUGsUXFgubPl8-15" value="&lt;font style=&quot;font-size: 20px;&quot;&gt;w&lt;/font&gt;" style="edgeLabel;html=1;align=center;verticalAlign=middle;resizable=0;points=[];fontSize=12;" parent="i9ecy3kwUGsUXFgubPl8-14" vertex="1" connectable="0">
          <mxGeometry x="-0.0833" y="2" relative="1" as="geometry">
            <mxPoint x="-42" y="-155" as="offset" />
          </mxGeometry>
        </mxCell>
        <mxCell id="i9ecy3kwUGsUXFgubPl8-16" value="q20" style="ellipse;whiteSpace=wrap;html=1;rounded=0;shadow=1;strokeColor=#666666;strokeWidth=1;fontSize=30;align=center;fillColor=#C7C7C7;" parent="1" vertex="1">
          <mxGeometry x="4269.86" y="1229.47" width="80" height="80" as="geometry" />
        </mxCell>
        <mxCell id="i9ecy3kwUGsUXFgubPl8-19" value="" style="edgeStyle=none;curved=0;rounded=0;orthogonalLoop=1;jettySize=auto;html=1;fontSize=12;startSize=8;endSize=8;endArrow=none;endFill=0;" parent="1" edge="1">
          <mxGeometry relative="1" as="geometry">
            <mxPoint x="5119.86" y="1440" as="sourcePoint" />
            <mxPoint x="5199.86" y="1280.26" as="targetPoint" />
            <Array as="points">
              <mxPoint x="5199.86" y="1439.53" />
            </Array>
          </mxGeometry>
        </mxCell>
        <mxCell id="i9ecy3kwUGsUXFgubPl8-20" value="&lt;font style=&quot;font-size: 20px;&quot;&gt;x&lt;/font&gt;" style="edgeLabel;html=1;align=center;verticalAlign=middle;resizable=0;points=[];fontSize=12;" parent="i9ecy3kwUGsUXFgubPl8-19" vertex="1" connectable="0">
          <mxGeometry x="-0.0833" y="2" relative="1" as="geometry">
            <mxPoint x="-42" y="6" as="offset" />
          </mxGeometry>
        </mxCell>
        <mxCell id="i9ecy3kwUGsUXFgubPl8-21" value="q33" style="ellipse;whiteSpace=wrap;html=1;rounded=0;shadow=1;strokeColor=#666666;strokeWidth=5;fontSize=30;align=center;fillColor=#C7C7C7;" parent="1" vertex="1">
          <mxGeometry x="5276.33" y="1239.47" width="80" height="80" as="geometry" />
        </mxCell>
        <mxCell id="i9ecy3kwUGsUXFgubPl8-31" value="&lt;font style=&quot;font-size: 20px;&quot;&gt;w, x, y, z&lt;/font&gt;" style="edgeLabel;html=1;align=center;verticalAlign=middle;resizable=0;points=[];fontSize=12;" parent="1" vertex="1" connectable="0">
          <mxGeometry x="4199.858823529412" y="1029.47" as="geometry">
            <mxPoint x="291" y="155" as="offset" />
          </mxGeometry>
        </mxCell>
        <mxCell id="i9ecy3kwUGsUXFgubPl8-32" style="edgeStyle=orthogonalEdgeStyle;rounded=0;orthogonalLoop=1;jettySize=auto;html=1;entryX=0.5;entryY=0;entryDx=0;entryDy=0;" parent="1" edge="1">
          <mxGeometry relative="1" as="geometry">
            <mxPoint x="4519.86" y="1239.47" as="targetPoint" />
            <mxPoint x="4479.86" y="1279.47" as="sourcePoint" />
            <Array as="points">
              <mxPoint x="4459.86" y="1279.47" />
              <mxPoint x="4459.86" y="1209.47" />
              <mxPoint x="4519.86" y="1209.47" />
            </Array>
          </mxGeometry>
        </mxCell>
        <mxCell id="JUdrio8stWn7Q4SskedR-13" value="" style="edgeStyle=orthogonalEdgeStyle;rounded=0;orthogonalLoop=1;jettySize=auto;html=1;" parent="1" source="JUdrio8stWn7Q4SskedR-10" target="JUdrio8stWn7Q4SskedR-12" edge="1">
          <mxGeometry relative="1" as="geometry" />
        </mxCell>
        <mxCell id="JUdrio8stWn7Q4SskedR-10" value="q15" style="ellipse;whiteSpace=wrap;html=1;fontSize=30;fillColor=#f5f5f5;strokeColor=#666666;rounded=0;shadow=1;strokeWidth=1;" parent="1" vertex="1">
          <mxGeometry x="3549.8599999999997" y="1229.47" width="80" height="80" as="geometry" />
        </mxCell>
        <mxCell id="JUdrio8stWn7Q4SskedR-15" value="" style="edgeStyle=orthogonalEdgeStyle;rounded=0;orthogonalLoop=1;jettySize=auto;html=1;" parent="1" source="JUdrio8stWn7Q4SskedR-12" target="JUdrio8stWn7Q4SskedR-14" edge="1">
          <mxGeometry relative="1" as="geometry" />
        </mxCell>
        <mxCell id="JUdrio8stWn7Q4SskedR-12" value="q16" style="ellipse;whiteSpace=wrap;html=1;fontSize=30;fillColor=#f5f5f5;strokeColor=#666666;rounded=0;shadow=1;strokeWidth=1;" parent="1" vertex="1">
          <mxGeometry x="3709.8599999999997" y="1229.47" width="80" height="80" as="geometry" />
        </mxCell>
        <mxCell id="JUdrio8stWn7Q4SskedR-17" value="" style="edgeStyle=orthogonalEdgeStyle;rounded=0;orthogonalLoop=1;jettySize=auto;html=1;" parent="1" source="JUdrio8stWn7Q4SskedR-14" target="JUdrio8stWn7Q4SskedR-16" edge="1">
          <mxGeometry relative="1" as="geometry" />
        </mxCell>
        <mxCell id="JUdrio8stWn7Q4SskedR-14" value="q17" style="ellipse;whiteSpace=wrap;html=1;fontSize=30;fillColor=#f5f5f5;strokeColor=#666666;rounded=0;shadow=1;strokeWidth=1;" parent="1" vertex="1">
          <mxGeometry x="3869.8599999999997" y="1229.47" width="80" height="80" as="geometry" />
        </mxCell>
        <mxCell id="JUdrio8stWn7Q4SskedR-16" value="q18" style="ellipse;whiteSpace=wrap;html=1;fontSize=30;fillColor=#f5f5f5;strokeColor=#666666;rounded=0;shadow=1;strokeWidth=1;" parent="1" vertex="1">
          <mxGeometry x="4029.8599999999997" y="1229.47" width="80" height="80" as="geometry" />
        </mxCell>
        <mxCell id="JUdrio8stWn7Q4SskedR-18" style="edgeStyle=orthogonalEdgeStyle;rounded=0;orthogonalLoop=1;jettySize=auto;html=1;entryX=0;entryY=0.5;entryDx=0;entryDy=0;" parent="1" source="JUdrio8stWn7Q4SskedR-16" target="i9ecy3kwUGsUXFgubPl8-16" edge="1">
          <mxGeometry relative="1" as="geometry" />
        </mxCell>
        <mxCell id="JUdrio8stWn7Q4SskedR-30" value="&lt;font style=&quot;font-size: 20px;&quot;&gt;z&lt;/font&gt;" style="edgeLabel;html=1;align=center;verticalAlign=middle;resizable=0;points=[];fontSize=12;" parent="1" vertex="1" connectable="0">
          <mxGeometry x="3509.8633333333337" y="1409.4699999999998" as="geometry" />
        </mxCell>
        <mxCell id="JUdrio8stWn7Q4SskedR-38" value="&lt;font style=&quot;font-size: 20px;&quot;&gt;w&lt;/font&gt;" style="edgeLabel;html=1;align=center;verticalAlign=middle;resizable=0;points=[];" parent="1" vertex="1" connectable="0">
          <mxGeometry x="3989.860689655173" y="1409.47" as="geometry" />
        </mxCell>
        <mxCell id="JUdrio8stWn7Q4SskedR-39" value="&lt;font style=&quot;font-size: 20px;&quot;&gt;x&lt;/font&gt;" style="edgeLabel;html=1;align=center;verticalAlign=middle;resizable=0;points=[];" parent="1" vertex="1" connectable="0">
          <mxGeometry x="4146.331034482759" y="1409.47" as="geometry" />
        </mxCell>
        <mxCell id="JUdrio8stWn7Q4SskedR-66" value="q32" style="ellipse;whiteSpace=wrap;html=1;rounded=0;shadow=1;strokeColor=#666666;strokeWidth=1;fontSize=30;align=center;fillColor=#C7C7C7;" parent="1" vertex="1">
          <mxGeometry x="4106.33" y="1110" width="80" height="80" as="geometry" />
        </mxCell>
        <mxCell id="JUdrio8stWn7Q4SskedR-67" value="q24" style="ellipse;whiteSpace=wrap;html=1;rounded=0;shadow=1;strokeColor=#666666;strokeWidth=1;fontSize=30;align=center;fillColor=#C7C7C7;" parent="1" vertex="1">
          <mxGeometry x="3949.8599999999997" y="1110" width="80" height="80" as="geometry" />
        </mxCell>
        <mxCell id="JUdrio8stWn7Q4SskedR-68" style="edgeStyle=none;curved=0;rounded=0;orthogonalLoop=1;jettySize=auto;html=1;exitX=0.5;exitY=0;exitDx=0;exitDy=0;entryX=1;entryY=0.5;entryDx=0;entryDy=0;fontSize=12;startSize=8;endSize=8;" parent="1" target="JUdrio8stWn7Q4SskedR-67" edge="1">
          <mxGeometry relative="1" as="geometry">
            <mxPoint x="4069.8599999999997" y="1230" as="sourcePoint" />
            <mxPoint x="4109.86" y="1030" as="targetPoint" />
            <Array as="points">
              <mxPoint x="4069.8599999999997" y="1150" />
            </Array>
          </mxGeometry>
        </mxCell>
        <mxCell id="JUdrio8stWn7Q4SskedR-69" value="&lt;span style=&quot;font-size: 20px;&quot;&gt;w&lt;/span&gt;" style="edgeLabel;html=1;align=center;verticalAlign=middle;resizable=0;points=[];fontSize=12;" parent="JUdrio8stWn7Q4SskedR-68" vertex="1" connectable="0">
          <mxGeometry x="0.7722" y="2" relative="1" as="geometry">
            <mxPoint x="6" y="-22" as="offset" />
          </mxGeometry>
        </mxCell>
        <mxCell id="JUdrio8stWn7Q4SskedR-70" style="edgeStyle=none;curved=0;rounded=0;orthogonalLoop=1;jettySize=auto;html=1;exitX=0.5;exitY=0;exitDx=0;exitDy=0;entryX=0;entryY=0.5;entryDx=0;entryDy=0;fontSize=12;startSize=8;endSize=8;" parent="1" target="JUdrio8stWn7Q4SskedR-66" edge="1">
          <mxGeometry relative="1" as="geometry">
            <mxPoint x="4069.8599999999997" y="1230" as="sourcePoint" />
            <mxPoint x="4109.86" y="1150" as="targetPoint" />
            <Array as="points">
              <mxPoint x="4069.8599999999997" y="1150" />
            </Array>
          </mxGeometry>
        </mxCell>
        <mxCell id="JUdrio8stWn7Q4SskedR-71" value="&lt;font style=&quot;font-size: 20px;&quot;&gt;w&lt;/font&gt;" style="edgeLabel;html=1;align=center;verticalAlign=middle;resizable=0;points=[];fontSize=12;" parent="JUdrio8stWn7Q4SskedR-70" vertex="1" connectable="0">
          <mxGeometry x="0.5778" y="1" relative="1" as="geometry">
            <mxPoint x="-2" y="-19" as="offset" />
          </mxGeometry>
        </mxCell>
        <mxCell id="JnRCVo2LPRj0WvbrtIT3-2" value="&lt;font style=&quot;font-size: 20px;&quot;&gt;x&lt;/font&gt;" style="edgeLabel;html=1;align=center;verticalAlign=middle;resizable=0;points=[];fontSize=12;" parent="1" vertex="1" connectable="0">
          <mxGeometry x="3509.8599999999997" y="1249.47" as="geometry" />
        </mxCell>
        <mxCell id="OryJi__Ae5CdnrV1uTCe-1" style="edgeStyle=none;curved=1;rounded=0;orthogonalLoop=1;jettySize=auto;html=1;exitX=1;exitY=0.5;exitDx=0;exitDy=0;fontSize=12;startSize=8;endSize=8;entryX=0;entryY=0.5;entryDx=0;entryDy=0;" parent="1" source="OryJi__Ae5CdnrV1uTCe-3" target="OryJi__Ae5CdnrV1uTCe-18" edge="1">
          <mxGeometry relative="1" as="geometry">
            <mxPoint x="4444" y="370.9417647058823" as="targetPoint" />
          </mxGeometry>
        </mxCell>
        <mxCell id="OryJi__Ae5CdnrV1uTCe-2" value="&lt;font style=&quot;font-size: 20px;&quot;&gt;z&lt;/font&gt;" style="edgeLabel;html=1;align=center;verticalAlign=middle;resizable=0;points=[];fontSize=12;" parent="OryJi__Ae5CdnrV1uTCe-1" vertex="1" connectable="0">
          <mxGeometry x="-0.4769" y="3" relative="1" as="geometry">
            <mxPoint x="19" y="-17" as="offset" />
          </mxGeometry>
        </mxCell>
        <mxCell id="OryJi__Ae5CdnrV1uTCe-3" value="q1" style="ellipse;whiteSpace=wrap;html=1;rounded=0;shadow=1;strokeColor=#666666;strokeWidth=1;fontSize=30;align=center;fillColor=#f5f5f5;" parent="1" vertex="1">
          <mxGeometry x="4204" y="330.53" width="80" height="80" as="geometry" />
        </mxCell>
        <mxCell id="OryJi__Ae5CdnrV1uTCe-4" value="" style="edgeStyle=none;orthogonalLoop=1;jettySize=auto;html=1;rounded=0;fontSize=12;startSize=8;endSize=8;curved=1;entryX=0;entryY=0.5;entryDx=0;entryDy=0;" parent="1" target="OryJi__Ae5CdnrV1uTCe-11" edge="1">
          <mxGeometry width="140" relative="1" as="geometry">
            <mxPoint x="3924" y="600.53" as="sourcePoint" />
            <mxPoint x="3964" y="600.53" as="targetPoint" />
            <Array as="points" />
          </mxGeometry>
        </mxCell>
        <mxCell id="OryJi__Ae5CdnrV1uTCe-5" style="edgeStyle=none;curved=0;rounded=0;orthogonalLoop=1;jettySize=auto;html=1;entryX=0;entryY=0.5;entryDx=0;entryDy=0;fontSize=12;startSize=8;endSize=8;" parent="1" source="OryJi__Ae5CdnrV1uTCe-11" target="OryJi__Ae5CdnrV1uTCe-3" edge="1">
          <mxGeometry relative="1" as="geometry">
            <Array as="points">
              <mxPoint x="4124" y="600.53" />
              <mxPoint x="4124" y="370.53" />
            </Array>
          </mxGeometry>
        </mxCell>
        <mxCell id="OryJi__Ae5CdnrV1uTCe-6" value="&lt;font style=&quot;font-size: 20px;&quot;&gt;w&lt;/font&gt;" style="edgeLabel;html=1;align=center;verticalAlign=middle;resizable=0;points=[];fontSize=12;" parent="OryJi__Ae5CdnrV1uTCe-5" vertex="1" connectable="0">
          <mxGeometry x="0.7841" y="2" relative="1" as="geometry">
            <mxPoint x="-7" y="-17" as="offset" />
          </mxGeometry>
        </mxCell>
        <mxCell id="OryJi__Ae5CdnrV1uTCe-7" style="edgeStyle=none;curved=0;rounded=0;orthogonalLoop=1;jettySize=auto;html=1;exitX=1;exitY=0.5;exitDx=0;exitDy=0;entryX=0;entryY=0.5;entryDx=0;entryDy=0;fontSize=12;startSize=8;endSize=8;" parent="1" source="OryJi__Ae5CdnrV1uTCe-11" target="OryJi__Ae5CdnrV1uTCe-15" edge="1">
          <mxGeometry relative="1" as="geometry">
            <Array as="points">
              <mxPoint x="4124" y="600.53" />
              <mxPoint x="4124" y="760.53" />
            </Array>
          </mxGeometry>
        </mxCell>
        <mxCell id="OryJi__Ae5CdnrV1uTCe-8" value="&lt;span style=&quot;font-size: 20px;&quot;&gt;y&lt;/span&gt;" style="edgeLabel;html=1;align=center;verticalAlign=middle;resizable=0;points=[];fontSize=12;" parent="OryJi__Ae5CdnrV1uTCe-7" vertex="1" connectable="0">
          <mxGeometry x="0.7841" relative="1" as="geometry">
            <mxPoint x="-7" y="-179" as="offset" />
          </mxGeometry>
        </mxCell>
        <mxCell id="OryJi__Ae5CdnrV1uTCe-9" value="&lt;font style=&quot;font-size: 20px;&quot;&gt;z&lt;/font&gt;" style="edgeLabel;html=1;align=center;verticalAlign=middle;resizable=0;points=[];" parent="OryJi__Ae5CdnrV1uTCe-7" vertex="1" connectable="0">
          <mxGeometry x="0.7257" y="1" relative="1" as="geometry">
            <mxPoint y="-19" as="offset" />
          </mxGeometry>
        </mxCell>
        <mxCell id="OryJi__Ae5CdnrV1uTCe-10" value="" style="edgeStyle=orthogonalEdgeStyle;rounded=0;orthogonalLoop=1;jettySize=auto;html=1;" parent="1" source="OryJi__Ae5CdnrV1uTCe-11" target="OryJi__Ae5CdnrV1uTCe-36" edge="1">
          <mxGeometry relative="1" as="geometry" />
        </mxCell>
        <mxCell id="OryJi__Ae5CdnrV1uTCe-11" value="q0" style="ellipse;whiteSpace=wrap;html=1;rounded=0;shadow=1;strokeColor=#666666;strokeWidth=1;fontSize=30;align=center;fillColor=#f5f5f5;" parent="1" vertex="1">
          <mxGeometry x="3984" y="560.53" width="80" height="80" as="geometry" />
        </mxCell>
        <mxCell id="OryJi__Ae5CdnrV1uTCe-12" value="" style="edgeStyle=none;curved=1;rounded=0;orthogonalLoop=1;jettySize=auto;html=1;fontSize=12;startSize=8;endSize=8;" parent="1" source="OryJi__Ae5CdnrV1uTCe-15" target="OryJi__Ae5CdnrV1uTCe-19" edge="1">
          <mxGeometry relative="1" as="geometry" />
        </mxCell>
        <mxCell id="OryJi__Ae5CdnrV1uTCe-13" value="&lt;font style=&quot;font-size: 20px;&quot;&gt;x&lt;/font&gt;" style="edgeLabel;html=1;align=center;verticalAlign=middle;resizable=0;points=[];fontSize=12;" parent="OryJi__Ae5CdnrV1uTCe-12" vertex="1" connectable="0">
          <mxGeometry x="-0.0833" y="2" relative="1" as="geometry">
            <mxPoint x="3" y="-178" as="offset" />
          </mxGeometry>
        </mxCell>
        <mxCell id="OryJi__Ae5CdnrV1uTCe-14" value="&lt;font style=&quot;font-size: 20px;&quot;&gt;w&lt;/font&gt;" style="edgeLabel;html=1;align=center;verticalAlign=middle;resizable=0;points=[];" parent="OryJi__Ae5CdnrV1uTCe-12" vertex="1" connectable="0">
          <mxGeometry x="-0.0583" relative="1" as="geometry">
            <mxPoint y="-20" as="offset" />
          </mxGeometry>
        </mxCell>
        <mxCell id="OryJi__Ae5CdnrV1uTCe-15" value="q7" style="ellipse;whiteSpace=wrap;html=1;rounded=0;shadow=1;strokeColor=#666666;strokeWidth=1;fontSize=30;align=center;fillColor=#f5f5f5;" parent="1" vertex="1">
          <mxGeometry x="4204" y="720.53" width="80" height="80" as="geometry" />
        </mxCell>
        <mxCell id="OryJi__Ae5CdnrV1uTCe-16" style="edgeStyle=none;curved=1;rounded=0;orthogonalLoop=1;jettySize=auto;html=1;entryX=0;entryY=0.5;entryDx=0;entryDy=0;fontSize=12;startSize=8;endSize=8;" parent="1" source="OryJi__Ae5CdnrV1uTCe-18" edge="1">
          <mxGeometry relative="1" as="geometry">
            <mxPoint x="4524" y="370.53" as="targetPoint" />
          </mxGeometry>
        </mxCell>
        <mxCell id="OryJi__Ae5CdnrV1uTCe-17" value="&lt;font style=&quot;font-size: 20px;&quot;&gt;w&lt;/font&gt;" style="edgeLabel;html=1;align=center;verticalAlign=middle;resizable=0;points=[];fontSize=12;" parent="OryJi__Ae5CdnrV1uTCe-16" vertex="1" connectable="0">
          <mxGeometry x="-0.0833" y="3" relative="1" as="geometry">
            <mxPoint y="-17" as="offset" />
          </mxGeometry>
        </mxCell>
        <mxCell id="OryJi__Ae5CdnrV1uTCe-18" value="q2" style="ellipse;whiteSpace=wrap;html=1;rounded=0;shadow=1;strokeColor=#666666;strokeWidth=1;fontSize=30;align=center;fillColor=#f5f5f5;" parent="1" vertex="1">
          <mxGeometry x="4364" y="330.53" width="80" height="80" as="geometry" />
        </mxCell>
        <mxCell id="OryJi__Ae5CdnrV1uTCe-19" value="q8" style="ellipse;whiteSpace=wrap;html=1;rounded=0;shadow=1;strokeColor=#666666;strokeWidth=1;fontSize=30;align=center;fillColor=#f5f5f5;" parent="1" vertex="1">
          <mxGeometry x="4364" y="720.53" width="80" height="80" as="geometry" />
        </mxCell>
        <mxCell id="OryJi__Ae5CdnrV1uTCe-20" value="" style="edgeStyle=none;curved=0;rounded=0;orthogonalLoop=1;jettySize=auto;html=1;fontSize=12;startSize=8;endSize=8;" parent="1" target="OryJi__Ae5CdnrV1uTCe-27" edge="1">
          <mxGeometry relative="1" as="geometry">
            <mxPoint x="4444" y="760.53" as="sourcePoint" />
            <Array as="points" />
          </mxGeometry>
        </mxCell>
        <mxCell id="OryJi__Ae5CdnrV1uTCe-21" value="&lt;font style=&quot;font-size: 20px;&quot;&gt;w&lt;/font&gt;" style="edgeLabel;html=1;align=center;verticalAlign=middle;resizable=0;points=[];fontSize=12;" parent="OryJi__Ae5CdnrV1uTCe-20" vertex="1" connectable="0">
          <mxGeometry x="-0.0833" y="2" relative="1" as="geometry">
            <mxPoint y="-177" as="offset" />
          </mxGeometry>
        </mxCell>
        <mxCell id="OryJi__Ae5CdnrV1uTCe-22" value="&lt;font style=&quot;font-size: 20px;&quot;&gt;x&lt;/font&gt;" style="edgeLabel;html=1;align=center;verticalAlign=middle;resizable=0;points=[];" parent="OryJi__Ae5CdnrV1uTCe-20" vertex="1" connectable="0">
          <mxGeometry x="-0.0464" relative="1" as="geometry">
            <mxPoint y="-20" as="offset" />
          </mxGeometry>
        </mxCell>
        <mxCell id="OryJi__Ae5CdnrV1uTCe-23" style="edgeStyle=orthogonalEdgeStyle;rounded=0;orthogonalLoop=1;jettySize=auto;html=1;exitX=1;exitY=0.5;exitDx=0;exitDy=0;endArrow=none;endFill=0;" parent="1" source="OryJi__Ae5CdnrV1uTCe-26" edge="1">
          <mxGeometry relative="1" as="geometry">
            <mxPoint x="4694" y="610.53" as="targetPoint" />
            <mxPoint x="4613.9999999999945" y="370.53" as="sourcePoint" />
          </mxGeometry>
        </mxCell>
        <mxCell id="OryJi__Ae5CdnrV1uTCe-24" value="&lt;font style=&quot;font-size: 20px;&quot;&gt;z&lt;/font&gt;" style="edgeLabel;html=1;align=center;verticalAlign=middle;resizable=0;points=[];" parent="OryJi__Ae5CdnrV1uTCe-23" vertex="1" connectable="0">
          <mxGeometry x="-0.6733" relative="1" as="geometry">
            <mxPoint x="-1" y="-19" as="offset" />
          </mxGeometry>
        </mxCell>
        <mxCell id="OryJi__Ae5CdnrV1uTCe-25" value="" style="edgeStyle=orthogonalEdgeStyle;rounded=0;orthogonalLoop=1;jettySize=auto;html=1;entryX=1;entryY=0.5;entryDx=0;entryDy=0;exitX=0.5;exitY=0;exitDx=0;exitDy=0;" parent="1" source="OryJi__Ae5CdnrV1uTCe-26" target="OryJi__Ae5CdnrV1uTCe-42" edge="1">
          <mxGeometry relative="1" as="geometry">
            <mxPoint x="4614" y="230.53" as="sourcePoint" />
            <mxPoint x="4544" y="180.53" as="targetPoint" />
          </mxGeometry>
        </mxCell>
        <mxCell id="OryJi__Ae5CdnrV1uTCe-26" value="q3" style="ellipse;whiteSpace=wrap;html=1;rounded=0;shadow=1;strokeColor=#666666;strokeWidth=1;fontSize=30;align=center;fillColor=#f5f5f5;" parent="1" vertex="1">
          <mxGeometry x="4524" y="330.53" width="80" height="80" as="geometry" />
        </mxCell>
        <mxCell id="OryJi__Ae5CdnrV1uTCe-27" value="q9" style="ellipse;whiteSpace=wrap;html=1;rounded=0;shadow=1;strokeColor=#666666;strokeWidth=1;fontSize=30;align=center;fillColor=#f5f5f5;" parent="1" vertex="1">
          <mxGeometry x="4524" y="720.53" width="80" height="80" as="geometry" />
        </mxCell>
        <mxCell id="OryJi__Ae5CdnrV1uTCe-28" value="" style="edgeStyle=none;curved=0;rounded=0;orthogonalLoop=1;jettySize=auto;html=1;fontSize=12;startSize=8;endSize=8;endArrow=none;endFill=0;exitX=1;exitY=0.5;exitDx=0;exitDy=0;" parent="1" source="OryJi__Ae5CdnrV1uTCe-27" edge="1">
          <mxGeometry relative="1" as="geometry">
            <mxPoint x="4614" y="760" as="sourcePoint" />
            <mxPoint x="4694" y="610.53" as="targetPoint" />
            <Array as="points">
              <mxPoint x="4694" y="759.53" />
            </Array>
          </mxGeometry>
        </mxCell>
        <mxCell id="OryJi__Ae5CdnrV1uTCe-29" value="&lt;font style=&quot;font-size: 20px;&quot;&gt;y&lt;/font&gt;" style="edgeLabel;html=1;align=center;verticalAlign=middle;resizable=0;points=[];" parent="OryJi__Ae5CdnrV1uTCe-28" vertex="1" connectable="0">
          <mxGeometry x="-0.653" y="1" relative="1" as="geometry">
            <mxPoint y="-18" as="offset" />
          </mxGeometry>
        </mxCell>
        <mxCell id="OryJi__Ae5CdnrV1uTCe-30" value="q10" style="ellipse;whiteSpace=wrap;html=1;rounded=0;shadow=1;strokeColor=#666666;strokeWidth=1;fontSize=30;align=center;fillColor=#C7C7C7;" parent="1" vertex="1">
          <mxGeometry x="4764" y="560.53" width="80" height="80" as="geometry" />
        </mxCell>
        <mxCell id="OryJi__Ae5CdnrV1uTCe-31" value="&lt;font style=&quot;font-size: 20px;&quot;&gt;w, x, y, z&lt;/font&gt;" style="edgeLabel;html=1;align=center;verticalAlign=middle;resizable=0;points=[];fontSize=12;" parent="1" vertex="1" connectable="0">
          <mxGeometry x="4713.998823529411" y="360.53" as="geometry">
            <mxPoint x="291" y="155" as="offset" />
          </mxGeometry>
        </mxCell>
        <mxCell id="OryJi__Ae5CdnrV1uTCe-32" style="edgeStyle=none;curved=0;rounded=0;orthogonalLoop=1;jettySize=auto;html=1;exitX=0.5;exitY=0;exitDx=0;exitDy=0;entryX=0;entryY=0.5;entryDx=0;entryDy=0;fontSize=12;startSize=8;endSize=8;" parent="1" target="OryJi__Ae5CdnrV1uTCe-34" edge="1">
          <mxGeometry relative="1" as="geometry">
            <Array as="points">
              <mxPoint x="4564" y="250.53" />
            </Array>
            <mxPoint x="4564" y="330.53" as="sourcePoint" />
          </mxGeometry>
        </mxCell>
        <mxCell id="OryJi__Ae5CdnrV1uTCe-33" value="&lt;font style=&quot;font-size: 20px;&quot;&gt;z&lt;/font&gt;" style="edgeLabel;html=1;align=center;verticalAlign=middle;resizable=0;points=[];fontSize=12;" parent="OryJi__Ae5CdnrV1uTCe-32" vertex="1" connectable="0">
          <mxGeometry x="0.5778" y="1" relative="1" as="geometry">
            <mxPoint x="-3" y="-19" as="offset" />
          </mxGeometry>
        </mxCell>
        <mxCell id="OryJi__Ae5CdnrV1uTCe-34" value="q19" style="ellipse;whiteSpace=wrap;html=1;rounded=0;shadow=1;strokeColor=#666666;strokeWidth=1;fontSize=30;align=center;fillColor=#C7C7C7;" parent="1" vertex="1">
          <mxGeometry x="4614" y="210.53" width="80" height="80" as="geometry" />
        </mxCell>
        <mxCell id="OryJi__Ae5CdnrV1uTCe-35" value="" style="edgeStyle=orthogonalEdgeStyle;rounded=0;orthogonalLoop=1;jettySize=auto;html=1;" parent="1" source="OryJi__Ae5CdnrV1uTCe-36" target="OryJi__Ae5CdnrV1uTCe-38" edge="1">
          <mxGeometry relative="1" as="geometry" />
        </mxCell>
        <mxCell id="OryJi__Ae5CdnrV1uTCe-36" value="q4" style="ellipse;whiteSpace=wrap;html=1;fontSize=30;fillColor=#f5f5f5;strokeColor=#666666;rounded=0;shadow=1;strokeWidth=1;" parent="1" vertex="1">
          <mxGeometry x="4204" y="560.53" width="80" height="80" as="geometry" />
        </mxCell>
        <mxCell id="OryJi__Ae5CdnrV1uTCe-37" value="" style="edgeStyle=orthogonalEdgeStyle;rounded=0;orthogonalLoop=1;jettySize=auto;html=1;" parent="1" source="OryJi__Ae5CdnrV1uTCe-38" target="OryJi__Ae5CdnrV1uTCe-39" edge="1">
          <mxGeometry relative="1" as="geometry" />
        </mxCell>
        <mxCell id="OryJi__Ae5CdnrV1uTCe-38" value="q5" style="ellipse;whiteSpace=wrap;html=1;fontSize=30;fillColor=#f5f5f5;strokeColor=#666666;rounded=0;shadow=1;strokeWidth=1;" parent="1" vertex="1">
          <mxGeometry x="4364" y="560.53" width="80" height="80" as="geometry" />
        </mxCell>
        <mxCell id="OryJi__Ae5CdnrV1uTCe-39" value="q6" style="ellipse;whiteSpace=wrap;html=1;fontSize=30;fillColor=#f5f5f5;strokeColor=#666666;rounded=0;shadow=1;strokeWidth=1;" parent="1" vertex="1">
          <mxGeometry x="4524" y="560.53" width="80" height="80" as="geometry" />
        </mxCell>
        <mxCell id="OryJi__Ae5CdnrV1uTCe-40" style="edgeStyle=orthogonalEdgeStyle;rounded=0;orthogonalLoop=1;jettySize=auto;html=1;entryX=0;entryY=0.5;entryDx=0;entryDy=0;" parent="1" source="OryJi__Ae5CdnrV1uTCe-39" target="OryJi__Ae5CdnrV1uTCe-30" edge="1">
          <mxGeometry relative="1" as="geometry" />
        </mxCell>
        <mxCell id="OryJi__Ae5CdnrV1uTCe-41" value="&lt;font style=&quot;font-size: 20px;&quot;&gt;z&lt;/font&gt;" style="edgeLabel;html=1;align=center;verticalAlign=middle;resizable=0;points=[];" parent="OryJi__Ae5CdnrV1uTCe-40" vertex="1" connectable="0">
          <mxGeometry x="-0.4781" relative="1" as="geometry">
            <mxPoint x="-2" y="-19" as="offset" />
          </mxGeometry>
        </mxCell>
        <mxCell id="OryJi__Ae5CdnrV1uTCe-42" value="q12" style="ellipse;whiteSpace=wrap;html=1;fontSize=30;fillColor=#C7C7C7;strokeColor=#666666;rounded=0;shadow=1;strokeWidth=1;" parent="1" vertex="1">
          <mxGeometry x="4444" y="210.53" width="80" height="80" as="geometry" />
        </mxCell>
        <mxCell id="OryJi__Ae5CdnrV1uTCe-43" value="&lt;font style=&quot;font-size: 20px;&quot;&gt;z&lt;/font&gt;" style="edgeLabel;html=1;align=center;verticalAlign=middle;resizable=0;points=[];fontSize=12;" parent="1" vertex="1" connectable="0">
          <mxGeometry x="4543.996666666667" y="230.53" as="geometry" />
        </mxCell>
        <mxCell id="OryJi__Ae5CdnrV1uTCe-44" value="" style="edgeStyle=orthogonalEdgeStyle;rounded=0;orthogonalLoop=1;jettySize=auto;html=1;entryX=1;entryY=0.5;entryDx=0;entryDy=0;exitX=0.5;exitY=0;exitDx=0;exitDy=0;" parent="1" target="OryJi__Ae5CdnrV1uTCe-48" edge="1">
          <mxGeometry relative="1" as="geometry">
            <mxPoint x="4564" y="559.99" as="sourcePoint" />
            <mxPoint x="4544" y="409.99" as="targetPoint" />
            <Array as="points">
              <mxPoint x="4564" y="480.53" />
            </Array>
          </mxGeometry>
        </mxCell>
        <mxCell id="OryJi__Ae5CdnrV1uTCe-45" style="edgeStyle=none;curved=0;rounded=0;orthogonalLoop=1;jettySize=auto;html=1;entryX=0;entryY=0.5;entryDx=0;entryDy=0;fontSize=12;startSize=8;endSize=8;" parent="1" target="OryJi__Ae5CdnrV1uTCe-47" edge="1">
          <mxGeometry relative="1" as="geometry">
            <Array as="points">
              <mxPoint x="4564" y="479.99" />
            </Array>
            <mxPoint x="4564" y="480.53" as="sourcePoint" />
          </mxGeometry>
        </mxCell>
        <mxCell id="OryJi__Ae5CdnrV1uTCe-46" value="&lt;font style=&quot;font-size: 20px;&quot;&gt;z&lt;/font&gt;" style="edgeLabel;html=1;align=center;verticalAlign=middle;resizable=0;points=[];fontSize=12;" parent="OryJi__Ae5CdnrV1uTCe-45" vertex="1" connectable="0">
          <mxGeometry x="0.5778" y="1" relative="1" as="geometry">
            <mxPoint x="-12" y="-18" as="offset" />
          </mxGeometry>
        </mxCell>
        <mxCell id="OryJi__Ae5CdnrV1uTCe-47" value="q19" style="ellipse;whiteSpace=wrap;html=1;rounded=0;shadow=1;strokeColor=#666666;strokeWidth=1;fontSize=30;align=center;fillColor=#C7C7C7;" parent="1" vertex="1">
          <mxGeometry x="4604" y="439.99" width="80" height="80" as="geometry" />
        </mxCell>
        <mxCell id="OryJi__Ae5CdnrV1uTCe-48" value="q12" style="ellipse;whiteSpace=wrap;html=1;fontSize=30;fillColor=#C7C7C7;strokeColor=#666666;rounded=0;shadow=1;strokeWidth=1;" parent="1" vertex="1">
          <mxGeometry x="4444" y="439.99" width="80" height="80" as="geometry" />
        </mxCell>
        <mxCell id="OryJi__Ae5CdnrV1uTCe-49" value="&lt;font style=&quot;font-size: 20px;&quot;&gt;z&lt;/font&gt;" style="edgeLabel;html=1;align=center;verticalAlign=middle;resizable=0;points=[];fontSize=12;" parent="1" vertex="1" connectable="0">
          <mxGeometry x="4543.996666666667" y="461.06" as="geometry" />
        </mxCell>
        <mxCell id="OryJi__Ae5CdnrV1uTCe-51" value="" style="edgeStyle=none;curved=1;rounded=0;orthogonalLoop=1;jettySize=auto;html=1;entryX=0;entryY=0.5;entryDx=0;entryDy=0;fontSize=12;startSize=8;endSize=8;" parent="1" source="iIViWj5kwo_5ftV5tEHs-11" target="YRFl2U0ToXUnBVI3a0Rl-33" edge="1">
          <mxGeometry relative="1" as="geometry">
            <mxPoint x="597" y="580" as="targetPoint" />
            <mxPoint x="440" y="580" as="sourcePoint" />
          </mxGeometry>
        </mxCell>
        <mxCell id="OryJi__Ae5CdnrV1uTCe-52" value="&lt;font style=&quot;font-size: 20px;&quot;&gt;b&lt;/font&gt;" style="edgeLabel;html=1;align=center;verticalAlign=middle;resizable=0;points=[];fontSize=12;" parent="OryJi__Ae5CdnrV1uTCe-51" vertex="1" connectable="0">
          <mxGeometry x="-0.0833" y="3" relative="1" as="geometry">
            <mxPoint y="-17" as="offset" />
          </mxGeometry>
        </mxCell>
        <mxCell id="OryJi__Ae5CdnrV1uTCe-53" style="edgeStyle=orthogonalEdgeStyle;rounded=0;orthogonalLoop=1;jettySize=auto;html=1;exitX=1;exitY=0.5;exitDx=0;exitDy=0;" parent="1" source="YRFl2U0ToXUnBVI3a0Rl-33" target="i9ecy3kwUGsUXFgubPl8-9" edge="1">
          <mxGeometry relative="1" as="geometry" />
        </mxCell>
        <mxCell id="YRFl2U0ToXUnBVI3a0Rl-33" value="q3" style="ellipse;whiteSpace=wrap;html=1;rounded=0;shadow=1;strokeColor=#666666;strokeWidth=1;fontSize=30;align=center;fillColor=#f5f5f5;" parent="1" vertex="1">
          <mxGeometry x="520" y="540" width="80" height="80" as="geometry" />
        </mxCell>
        <mxCell id="OryJi__Ae5CdnrV1uTCe-54" value="&lt;span style=&quot;color: rgb(85, 85, 85); font-family: Arial, Helvetica, sans-serif; font-size: 15px; text-align: justify; text-wrap: wrap;&quot;&gt;ε&lt;/span&gt;" style="edgeLabel;html=1;align=center;verticalAlign=middle;resizable=0;points=[];fontSize=12;" parent="1" vertex="1" connectable="0">
          <mxGeometry x="800.004210526314" y="560.53" as="geometry" />
        </mxCell>
        <mxCell id="OryJi__Ae5CdnrV1uTCe-55" value="q5" style="ellipse;whiteSpace=wrap;html=1;rounded=0;shadow=1;strokeColor=#666666;strokeWidth=1;fontSize=30;align=center;fillColor=#C7C7C7;" parent="1" vertex="1">
          <mxGeometry x="837" y="540" width="80" height="80" as="geometry" />
        </mxCell>
        <mxCell id="OryJi__Ae5CdnrV1uTCe-57" value="&lt;font style=&quot;font-size: 20px;&quot;&gt;a&lt;/font&gt;" style="edgeLabel;html=1;align=center;verticalAlign=middle;resizable=0;points=[];fontSize=12;" parent="1" vertex="1" connectable="0">
          <mxGeometry x="639.9996969696988" y="560.53" as="geometry" />
        </mxCell>
        <mxCell id="OryJi__Ae5CdnrV1uTCe-76" value="q5" style="ellipse;whiteSpace=wrap;html=1;rounded=0;shadow=1;strokeColor=#666666;strokeWidth=1;fontSize=30;align=center;fillColor=#f5f5f5;" parent="1" vertex="1">
          <mxGeometry x="1160" y="220" width="80" height="80" as="geometry" />
        </mxCell>
        <mxCell id="OryJi__Ae5CdnrV1uTCe-143" value="" style="edgeStyle=orthogonalEdgeStyle;rounded=0;orthogonalLoop=1;jettySize=auto;html=1;" parent="1" source="OryJi__Ae5CdnrV1uTCe-114" target="OryJi__Ae5CdnrV1uTCe-142" edge="1">
          <mxGeometry relative="1" as="geometry" />
        </mxCell>
        <mxCell id="OryJi__Ae5CdnrV1uTCe-114" value="q6" style="ellipse;whiteSpace=wrap;html=1;rounded=0;shadow=1;strokeColor=#666666;strokeWidth=1;fontSize=30;align=center;fillColor=#f5f5f5;" parent="1" vertex="1">
          <mxGeometry x="1160" y="220" width="80" height="80" as="geometry" />
        </mxCell>
        <mxCell id="OryJi__Ae5CdnrV1uTCe-145" value="" style="edgeStyle=orthogonalEdgeStyle;rounded=0;orthogonalLoop=1;jettySize=auto;html=1;" parent="1" source="OryJi__Ae5CdnrV1uTCe-142" target="OryJi__Ae5CdnrV1uTCe-144" edge="1">
          <mxGeometry relative="1" as="geometry" />
        </mxCell>
        <mxCell id="OryJi__Ae5CdnrV1uTCe-188" style="edgeStyle=orthogonalEdgeStyle;rounded=0;orthogonalLoop=1;jettySize=auto;html=1;entryX=0.5;entryY=0;entryDx=0;entryDy=0;" parent="1" source="OryJi__Ae5CdnrV1uTCe-142" target="OryJi__Ae5CdnrV1uTCe-165" edge="1">
          <mxGeometry relative="1" as="geometry">
            <Array as="points">
              <mxPoint x="1360" />
              <mxPoint x="2160" />
            </Array>
          </mxGeometry>
        </mxCell>
        <mxCell id="OryJi__Ae5CdnrV1uTCe-142" value="q7" style="ellipse;whiteSpace=wrap;html=1;fontSize=30;fillColor=#f5f5f5;strokeColor=#666666;rounded=0;shadow=1;strokeWidth=1;" parent="1" vertex="1">
          <mxGeometry x="1320" y="220" width="80" height="80" as="geometry" />
        </mxCell>
        <mxCell id="OryJi__Ae5CdnrV1uTCe-147" value="" style="edgeStyle=orthogonalEdgeStyle;rounded=0;orthogonalLoop=1;jettySize=auto;html=1;" parent="1" source="OryJi__Ae5CdnrV1uTCe-144" target="OryJi__Ae5CdnrV1uTCe-146" edge="1">
          <mxGeometry relative="1" as="geometry" />
        </mxCell>
        <mxCell id="OryJi__Ae5CdnrV1uTCe-144" value="q8" style="ellipse;whiteSpace=wrap;html=1;fontSize=30;fillColor=#f5f5f5;strokeColor=#666666;rounded=0;shadow=1;strokeWidth=1;" parent="1" vertex="1">
          <mxGeometry x="1480" y="220" width="80" height="80" as="geometry" />
        </mxCell>
        <mxCell id="OryJi__Ae5CdnrV1uTCe-149" value="" style="edgeStyle=orthogonalEdgeStyle;rounded=0;orthogonalLoop=1;jettySize=auto;html=1;" parent="1" source="OryJi__Ae5CdnrV1uTCe-146" target="OryJi__Ae5CdnrV1uTCe-148" edge="1">
          <mxGeometry relative="1" as="geometry" />
        </mxCell>
        <mxCell id="OryJi__Ae5CdnrV1uTCe-159" value="" style="edgeStyle=orthogonalEdgeStyle;rounded=0;orthogonalLoop=1;jettySize=auto;html=1;" parent="1" source="OryJi__Ae5CdnrV1uTCe-146" target="OryJi__Ae5CdnrV1uTCe-158" edge="1">
          <mxGeometry relative="1" as="geometry" />
        </mxCell>
        <mxCell id="OryJi__Ae5CdnrV1uTCe-185" value="" style="edgeStyle=orthogonalEdgeStyle;rounded=0;orthogonalLoop=1;jettySize=auto;html=1;" parent="1" source="OryJi__Ae5CdnrV1uTCe-146" target="OryJi__Ae5CdnrV1uTCe-182" edge="1">
          <mxGeometry relative="1" as="geometry" />
        </mxCell>
        <mxCell id="OryJi__Ae5CdnrV1uTCe-146" value="q9" style="ellipse;whiteSpace=wrap;html=1;fontSize=30;fillColor=#f5f5f5;strokeColor=#666666;rounded=0;shadow=1;strokeWidth=1;" parent="1" vertex="1">
          <mxGeometry x="1640" y="220" width="80" height="80" as="geometry" />
        </mxCell>
        <mxCell id="OryJi__Ae5CdnrV1uTCe-151" value="" style="edgeStyle=orthogonalEdgeStyle;rounded=0;orthogonalLoop=1;jettySize=auto;html=1;" parent="1" source="OryJi__Ae5CdnrV1uTCe-148" target="OryJi__Ae5CdnrV1uTCe-150" edge="1">
          <mxGeometry relative="1" as="geometry" />
        </mxCell>
        <mxCell id="OryJi__Ae5CdnrV1uTCe-148" value="q10" style="ellipse;whiteSpace=wrap;html=1;fontSize=30;fillColor=#f5f5f5;strokeColor=#666666;rounded=0;shadow=1;strokeWidth=1;" parent="1" vertex="1">
          <mxGeometry x="1640" y="59.99999999999997" width="80" height="80" as="geometry" />
        </mxCell>
        <mxCell id="OryJi__Ae5CdnrV1uTCe-183" value="" style="edgeStyle=orthogonalEdgeStyle;rounded=0;orthogonalLoop=1;jettySize=auto;html=1;" parent="1" source="OryJi__Ae5CdnrV1uTCe-150" target="OryJi__Ae5CdnrV1uTCe-182" edge="1">
          <mxGeometry relative="1" as="geometry" />
        </mxCell>
        <mxCell id="OryJi__Ae5CdnrV1uTCe-150" value="q11" style="ellipse;whiteSpace=wrap;html=1;fontSize=30;fillColor=#f5f5f5;strokeColor=#666666;rounded=0;shadow=1;strokeWidth=1;" parent="1" vertex="1">
          <mxGeometry x="1800" y="59.99999999999997" width="80" height="80" as="geometry" />
        </mxCell>
        <mxCell id="OryJi__Ae5CdnrV1uTCe-157" value="" style="edgeStyle=orthogonalEdgeStyle;rounded=0;orthogonalLoop=1;jettySize=auto;html=1;" parent="1" target="OryJi__Ae5CdnrV1uTCe-156" edge="1">
          <mxGeometry relative="1" as="geometry">
            <mxPoint x="1880" y="260.0000000000002" as="sourcePoint" />
          </mxGeometry>
        </mxCell>
        <mxCell id="OryJi__Ae5CdnrV1uTCe-166" value="" style="edgeStyle=orthogonalEdgeStyle;rounded=0;orthogonalLoop=1;jettySize=auto;html=1;" parent="1" source="OryJi__Ae5CdnrV1uTCe-156" target="OryJi__Ae5CdnrV1uTCe-165" edge="1">
          <mxGeometry relative="1" as="geometry" />
        </mxCell>
        <mxCell id="OryJi__Ae5CdnrV1uTCe-189" style="edgeStyle=orthogonalEdgeStyle;rounded=0;orthogonalLoop=1;jettySize=auto;html=1;exitX=0.5;exitY=1;exitDx=0;exitDy=0;entryX=0.5;entryY=1;entryDx=0;entryDy=0;" parent="1" source="OryJi__Ae5CdnrV1uTCe-156" target="OryJi__Ae5CdnrV1uTCe-142" edge="1">
          <mxGeometry relative="1" as="geometry">
            <Array as="points">
              <mxPoint x="2000" y="520" />
              <mxPoint x="1360" y="520" />
            </Array>
          </mxGeometry>
        </mxCell>
        <mxCell id="OryJi__Ae5CdnrV1uTCe-156" value="q15" style="ellipse;whiteSpace=wrap;html=1;fontSize=30;fillColor=#f5f5f5;strokeColor=#666666;rounded=0;shadow=1;strokeWidth=1;" parent="1" vertex="1">
          <mxGeometry x="1960" y="220" width="80" height="80" as="geometry" />
        </mxCell>
        <mxCell id="OryJi__Ae5CdnrV1uTCe-161" value="" style="edgeStyle=orthogonalEdgeStyle;rounded=0;orthogonalLoop=1;jettySize=auto;html=1;" parent="1" source="OryJi__Ae5CdnrV1uTCe-158" target="OryJi__Ae5CdnrV1uTCe-160" edge="1">
          <mxGeometry relative="1" as="geometry" />
        </mxCell>
        <mxCell id="OryJi__Ae5CdnrV1uTCe-158" value="q12" style="ellipse;whiteSpace=wrap;html=1;fontSize=30;fillColor=#f5f5f5;strokeColor=#666666;rounded=0;shadow=1;strokeWidth=1;" parent="1" vertex="1">
          <mxGeometry x="1640" y="380" width="80" height="80" as="geometry" />
        </mxCell>
        <mxCell id="OryJi__Ae5CdnrV1uTCe-184" value="" style="edgeStyle=orthogonalEdgeStyle;rounded=0;orthogonalLoop=1;jettySize=auto;html=1;" parent="1" source="OryJi__Ae5CdnrV1uTCe-160" target="OryJi__Ae5CdnrV1uTCe-182" edge="1">
          <mxGeometry relative="1" as="geometry" />
        </mxCell>
        <mxCell id="OryJi__Ae5CdnrV1uTCe-160" value="q13" style="ellipse;whiteSpace=wrap;html=1;fontSize=30;fillColor=#f5f5f5;strokeColor=#666666;rounded=0;shadow=1;strokeWidth=1;" parent="1" vertex="1">
          <mxGeometry x="1800" y="380" width="80" height="80" as="geometry" />
        </mxCell>
        <mxCell id="OryJi__Ae5CdnrV1uTCe-168" value="" style="edgeStyle=orthogonalEdgeStyle;rounded=0;orthogonalLoop=1;jettySize=auto;html=1;" parent="1" source="OryJi__Ae5CdnrV1uTCe-165" target="OryJi__Ae5CdnrV1uTCe-167" edge="1">
          <mxGeometry relative="1" as="geometry" />
        </mxCell>
        <mxCell id="OryJi__Ae5CdnrV1uTCe-165" value="q16" style="ellipse;whiteSpace=wrap;html=1;fontSize=30;fillColor=#f5f5f5;strokeColor=#666666;rounded=0;shadow=1;strokeWidth=1;" parent="1" vertex="1">
          <mxGeometry x="2120" y="220" width="80" height="80" as="geometry" />
        </mxCell>
        <mxCell id="OryJi__Ae5CdnrV1uTCe-170" value="" style="edgeStyle=orthogonalEdgeStyle;rounded=0;orthogonalLoop=1;jettySize=auto;html=1;" parent="1" source="OryJi__Ae5CdnrV1uTCe-167" target="OryJi__Ae5CdnrV1uTCe-169" edge="1">
          <mxGeometry relative="1" as="geometry" />
        </mxCell>
        <mxCell id="OryJi__Ae5CdnrV1uTCe-167" value="q17" style="ellipse;whiteSpace=wrap;html=1;fontSize=30;fillColor=#f5f5f5;strokeColor=#666666;rounded=0;shadow=1;strokeWidth=1;" parent="1" vertex="1">
          <mxGeometry x="2280" y="220" width="80" height="80" as="geometry" />
        </mxCell>
        <mxCell id="OryJi__Ae5CdnrV1uTCe-172" value="" style="edgeStyle=orthogonalEdgeStyle;rounded=0;orthogonalLoop=1;jettySize=auto;html=1;" parent="1" source="OryJi__Ae5CdnrV1uTCe-169" target="OryJi__Ae5CdnrV1uTCe-171" edge="1">
          <mxGeometry relative="1" as="geometry" />
        </mxCell>
        <mxCell id="OryJi__Ae5CdnrV1uTCe-169" value="q18" style="ellipse;whiteSpace=wrap;html=1;fontSize=30;fillColor=#f5f5f5;strokeColor=#666666;rounded=0;shadow=1;strokeWidth=1;" parent="1" vertex="1">
          <mxGeometry x="2440" y="220" width="80" height="80" as="geometry" />
        </mxCell>
        <mxCell id="OryJi__Ae5CdnrV1uTCe-171" value="q21" style="ellipse;whiteSpace=wrap;html=1;fontSize=30;fillColor=#C7C7C7;strokeColor=#666666;rounded=0;shadow=1;strokeWidth=1;" parent="1" vertex="1">
          <mxGeometry x="2440" y="380" width="80" height="80" as="geometry" />
        </mxCell>
        <mxCell id="OryJi__Ae5CdnrV1uTCe-176" value="" style="edgeStyle=orthogonalEdgeStyle;rounded=0;orthogonalLoop=1;jettySize=auto;html=1;" parent="1" source="OryJi__Ae5CdnrV1uTCe-173" target="OryJi__Ae5CdnrV1uTCe-175" edge="1">
          <mxGeometry relative="1" as="geometry" />
        </mxCell>
        <mxCell id="OryJi__Ae5CdnrV1uTCe-186" value="" style="edgeStyle=orthogonalEdgeStyle;rounded=0;orthogonalLoop=1;jettySize=auto;html=1;" parent="1" source="OryJi__Ae5CdnrV1uTCe-173" target="OryJi__Ae5CdnrV1uTCe-114" edge="1">
          <mxGeometry relative="1" as="geometry" />
        </mxCell>
        <mxCell id="OryJi__Ae5CdnrV1uTCe-173" value="q5" style="ellipse;whiteSpace=wrap;html=1;rounded=0;shadow=1;strokeColor=#666666;strokeWidth=1;fontSize=30;align=center;fillColor=#f5f5f5;" parent="1" vertex="1">
          <mxGeometry x="1160" y="380" width="80" height="80" as="geometry" />
        </mxCell>
        <mxCell id="OryJi__Ae5CdnrV1uTCe-179" style="edgeStyle=orthogonalEdgeStyle;rounded=0;orthogonalLoop=1;jettySize=auto;html=1;entryX=0;entryY=0.5;entryDx=0;entryDy=0;" parent="1" source="OryJi__Ae5CdnrV1uTCe-175" target="OryJi__Ae5CdnrV1uTCe-177" edge="1">
          <mxGeometry relative="1" as="geometry" />
        </mxCell>
        <mxCell id="OryJi__Ae5CdnrV1uTCe-175" value="q19" style="ellipse;whiteSpace=wrap;html=1;rounded=0;shadow=1;strokeColor=#666666;strokeWidth=1;fontSize=30;align=center;fillColor=#f5f5f5;" parent="1" vertex="1">
          <mxGeometry x="1160" y="540" width="80" height="80" as="geometry" />
        </mxCell>
        <mxCell id="OryJi__Ae5CdnrV1uTCe-187" value="" style="edgeStyle=orthogonalEdgeStyle;rounded=0;orthogonalLoop=1;jettySize=auto;html=1;" parent="1" source="OryJi__Ae5CdnrV1uTCe-177" target="OryJi__Ae5CdnrV1uTCe-171" edge="1">
          <mxGeometry relative="1" as="geometry" />
        </mxCell>
        <mxCell id="OryJi__Ae5CdnrV1uTCe-177" value="q20" style="ellipse;whiteSpace=wrap;html=1;fontSize=30;fillColor=#f5f5f5;strokeColor=#666666;rounded=0;shadow=1;strokeWidth=1;" parent="1" vertex="1">
          <mxGeometry x="2440" y="540" width="80" height="80" as="geometry" />
        </mxCell>
        <mxCell id="OryJi__Ae5CdnrV1uTCe-182" value="q14" style="ellipse;whiteSpace=wrap;html=1;fontSize=30;fillColor=#f5f5f5;strokeColor=#666666;rounded=0;shadow=1;strokeWidth=1;" parent="1" vertex="1">
          <mxGeometry x="1800" y="220" width="80" height="80" as="geometry" />
        </mxCell>
        <mxCell id="OryJi__Ae5CdnrV1uTCe-229" style="edgeStyle=orthogonalEdgeStyle;rounded=0;orthogonalLoop=1;jettySize=auto;html=1;entryX=0;entryY=0.5;entryDx=0;entryDy=0;" parent="1" source="OryJi__Ae5CdnrV1uTCe-230" target="OryJi__Ae5CdnrV1uTCe-233" edge="1">
          <mxGeometry relative="1" as="geometry" />
        </mxCell>
        <mxCell id="OryJi__Ae5CdnrV1uTCe-230" value="q24" style="ellipse;whiteSpace=wrap;html=1;rounded=0;shadow=1;strokeColor=#666666;strokeWidth=1;fontSize=30;align=center;fillColor=#F5F5F5;" parent="1" vertex="1">
          <mxGeometry x="2920" y="540" width="80" height="80" as="geometry" />
        </mxCell>
        <mxCell id="OryJi__Ae5CdnrV1uTCe-231" style="edgeStyle=orthogonalEdgeStyle;rounded=0;orthogonalLoop=1;jettySize=auto;html=1;exitX=1;exitY=0.5;exitDx=0;exitDy=0;" parent="1" source="OryJi__Ae5CdnrV1uTCe-239" target="OryJi__Ae5CdnrV1uTCe-230" edge="1">
          <mxGeometry relative="1" as="geometry">
            <mxPoint x="2860" y="580" as="sourcePoint" />
          </mxGeometry>
        </mxCell>
        <mxCell id="OryJi__Ae5CdnrV1uTCe-232" value="&lt;span style=&quot;color: rgb(85, 85, 85); font-family: Arial, Helvetica, sans-serif; text-align: justify; text-wrap: wrap;&quot;&gt;&lt;font style=&quot;font-size: 20px;&quot;&gt;ε&lt;/font&gt;&lt;/span&gt;" style="edgeLabel;html=1;align=center;verticalAlign=middle;resizable=0;points=[];fontSize=12;" parent="1" vertex="1" connectable="0">
          <mxGeometry x="3040.0042105263137" y="560.53" as="geometry" />
        </mxCell>
        <mxCell id="OryJi__Ae5CdnrV1uTCe-233" value="q25" style="ellipse;whiteSpace=wrap;html=1;rounded=0;shadow=1;strokeColor=#666666;strokeWidth=1;fontSize=30;align=center;fillColor=#C7C7C7;" parent="1" vertex="1">
          <mxGeometry x="3080" y="540" width="80" height="80" as="geometry" />
        </mxCell>
        <mxCell id="OryJi__Ae5CdnrV1uTCe-234" value="&lt;font style=&quot;font-size: 20px;&quot;&gt;b&lt;/font&gt;" style="edgeLabel;html=1;align=center;verticalAlign=middle;resizable=0;points=[];fontSize=12;" parent="1" vertex="1" connectable="0">
          <mxGeometry x="2879.9996969696986" y="560.53" as="geometry" />
        </mxCell>
        <mxCell id="OryJi__Ae5CdnrV1uTCe-235" style="edgeStyle=none;curved=0;rounded=0;orthogonalLoop=1;jettySize=auto;html=1;entryX=0;entryY=0.5;entryDx=0;entryDy=0;fontSize=12;startSize=8;endSize=8;" parent="1" source="OryJi__Ae5CdnrV1uTCe-237" target="OryJi__Ae5CdnrV1uTCe-239" edge="1">
          <mxGeometry relative="1" as="geometry">
            <Array as="points" />
            <mxPoint x="2750" y="580" as="targetPoint" />
          </mxGeometry>
        </mxCell>
        <mxCell id="OryJi__Ae5CdnrV1uTCe-236" value="&lt;span style=&quot;color: rgb(85, 85, 85); font-family: Arial, Helvetica, sans-serif; text-align: justify; text-wrap: wrap;&quot;&gt;&lt;font style=&quot;font-size: 20px;&quot;&gt;ε&lt;/font&gt;&lt;/span&gt;" style="edgeLabel;html=1;align=center;verticalAlign=middle;resizable=0;points=[];fontSize=12;" parent="OryJi__Ae5CdnrV1uTCe-235" vertex="1" connectable="0">
          <mxGeometry x="0.7841" y="2" relative="1" as="geometry">
            <mxPoint x="-33" y="-17" as="offset" />
          </mxGeometry>
        </mxCell>
        <mxCell id="OryJi__Ae5CdnrV1uTCe-237" value="q22" style="ellipse;whiteSpace=wrap;html=1;rounded=0;shadow=1;strokeColor=#666666;strokeWidth=1;fontSize=30;align=center;fillColor=#f5f5f5;" parent="1" vertex="1">
          <mxGeometry x="2610" y="540" width="80" height="80" as="geometry" />
        </mxCell>
        <mxCell id="OryJi__Ae5CdnrV1uTCe-239" value="q23" style="ellipse;whiteSpace=wrap;html=1;rounded=0;shadow=1;strokeColor=#666666;strokeWidth=1;fontSize=30;align=center;fillColor=#f5f5f5;" parent="1" vertex="1">
          <mxGeometry x="2760" y="540" width="80" height="80" as="geometry" />
        </mxCell>
      </root>
    </mxGraphModel>
  </diagram>
</mxfile>
